<svg width="157" height="89" viewBox="0 0 157 89" fill="none" xmlns="http://www.w3.org/2000/svg">
<path d="M9.40467 53.4913C7.76153 53.4598 6.17124 54.0822 4.97249 55.2257C4.95802 55.2655 4.93095 55.2993 4.89553 55.3218C4.86011 55.3442 4.81836 55.3541 4.77684 55.3497C4.74786 55.3456 4.72146 55.3305 4.70281 55.3076C4.68415 55.2847 4.67459 55.2555 4.67601 55.2257V44.9215C4.68155 44.8778 4.68155 44.8336 4.67601 44.7899C4.65856 44.6762 4.5977 44.5742 4.50666 44.506C4.41563 44.4377 4.30178 44.4088 4.1899 44.4255H0.487641C0.465606 44.4237 0.443456 44.4237 0.421421 44.4255C0.361668 44.4296 0.303305 44.4457 0.249732 44.4729C0.196158 44.5001 0.148443 44.5379 0.109366 44.5841C0.0702888 44.6303 0.0406324 44.6839 0.0221188 44.7418C0.00360522 44.7997 -0.00339535 44.8608 0.00152853 44.9215V78.6004C-0.000286505 78.6228 -0.000286505 78.6453 0.00152853 78.6677C0.00552468 78.7284 0.0213152 78.7876 0.0479823 78.842C0.0746494 78.8964 0.111662 78.9449 0.156879 78.9846C0.202095 79.0243 0.254616 79.0545 0.311394 79.0734C0.368171 79.0924 0.428078 79.0997 0.487641 79.0949H4.1914C4.23376 79.1019 4.27697 79.1019 4.31933 79.0949C4.37482 79.0864 4.42814 79.067 4.47621 79.0375C4.52428 79.0081 4.56617 78.9693 4.59945 78.9233C4.63273 78.8774 4.65677 78.8252 4.67016 78.7698C4.68356 78.7144 4.68606 78.6568 4.67752 78.6004V77.8227C4.67624 77.7926 4.68263 77.7627 4.69608 77.7359C4.70953 77.7091 4.72958 77.6862 4.75427 77.6696C4.79942 77.6375 4.85811 77.6574 4.92283 77.7201C5.53093 78.31 6.25237 78.7655 7.04185 79.0581C7.7966 79.3538 8.5974 79.5094 9.40617 79.5174C10.3535 79.5546 11.2971 79.3777 12.1692 78.9994C13.0412 78.6212 13.82 78.0509 14.4494 77.3298C15.7506 75.7435 16.4197 73.7186 16.3246 71.6549V61.3721C16.4419 59.2801 15.7811 57.2199 14.4735 55.6008C13.8329 54.8918 13.0466 54.3352 12.1705 53.9706C11.2944 53.606 10.35 53.4423 9.40467 53.4913ZM11.6922 71.3304C11.7353 72.3973 11.38 73.4414 10.6975 74.2528C10.3808 74.624 9.987 74.9191 9.54453 75.1166C9.10206 75.3141 8.62197 75.4091 8.13898 75.3948C7.66751 75.4066 7.19949 75.31 6.76981 75.1123C6.34012 74.9145 5.95983 74.6207 5.65726 74.2528C4.98642 73.4356 4.63781 72.3941 4.67902 71.3304V61.6691C4.63694 60.6052 4.98566 59.5634 5.65726 58.7467C5.96089 58.3799 6.34135 58.0868 6.77076 57.8889C7.20017 57.6911 7.66766 57.5934 8.13898 57.6031C8.62187 57.5906 9.10153 57.6866 9.54377 57.8843C9.98601 58.0819 10.3799 58.3764 10.6975 58.7467C11.3803 59.5579 11.7358 60.6021 11.6922 61.6691V71.3304Z" fill="white"/>
<path d="M28.989 53.4942C26.9598 53.4345 24.9812 54.1437 23.4371 55.4843C22.7024 56.1281 22.1035 56.9165 21.6765 57.8021C21.2494 58.6877 21.0031 59.6521 20.9524 60.6372C20.9468 60.6804 20.9468 60.7241 20.9524 60.7673C20.9607 60.824 20.9799 60.8785 21.0089 60.9276C21.0379 60.9768 21.0761 61.0197 21.1214 61.0538C21.1667 61.0879 21.2181 61.1126 21.2728 61.1265C21.3275 61.1404 21.3843 61.1432 21.44 61.1347H25.4388C25.4987 61.1308 25.5572 61.1149 25.6109 61.0877C25.6647 61.0606 25.7126 61.0228 25.7518 60.9766C25.791 60.9305 25.8208 60.8768 25.8394 60.8188C25.858 60.7607 25.8651 60.6995 25.8602 60.6387C25.9243 59.8194 26.2683 59.0487 26.8324 58.4603C27.0998 58.1822 27.4209 57.9634 27.7755 57.8177C28.13 57.672 28.5104 57.6026 28.8927 57.6137C29.3835 57.6043 29.8693 57.7144 30.3097 57.9349C30.7501 58.1554 31.1322 58.4799 31.4241 58.8813C32.1134 59.8511 32.4569 61.031 32.3978 62.2262V63.6606C32.4011 63.6788 32.4011 63.6975 32.3978 63.7157C32.3908 63.7607 32.3666 63.801 32.3305 63.8279C32.2945 63.8548 32.2494 63.8662 32.2052 63.8596H29.3788C26.9897 63.7361 24.6296 64.4374 22.6816 65.8497C21.7928 66.621 21.0971 67.5963 20.6522 68.6952C20.2073 69.794 20.026 70.9848 20.1232 72.1691C20.1232 74.9134 20.83 76.828 22.2437 77.9129C23.6539 78.9854 25.3743 79.5513 27.1349 79.5218C28.0752 79.5893 29.0181 79.4336 29.8891 79.067C30.7602 78.7004 31.5355 78.1329 32.154 77.4092C32.2187 77.3587 32.2774 77.325 32.3226 77.3587C32.3484 77.3739 32.3692 77.3966 32.3823 77.4239C32.3955 77.4511 32.4003 77.4817 32.3963 77.5118V78.6033C32.394 78.6277 32.394 78.6524 32.3963 78.6768C32.4009 78.7376 32.4172 78.7969 32.4445 78.8512C32.4718 78.9055 32.5095 78.9537 32.5553 78.993C32.6011 79.0323 32.6542 79.062 32.7114 79.0802C32.7686 79.0985 32.8288 79.105 32.8884 79.0993H36.6644C36.7241 79.0952 36.7823 79.0792 36.8358 79.0521C36.8892 79.0249 36.9369 78.9873 36.9759 78.9413C37.015 78.8953 37.0447 78.8419 37.0633 78.7841C37.0819 78.7264 37.0891 78.6654 37.0843 78.6048V61.7868C37.143 60.687 36.9742 59.5868 36.5888 58.5575C36.2034 57.5281 35.61 56.5924 34.847 55.8109C34.0839 55.0294 33.1681 54.4194 32.1588 54.0203C31.1495 53.6213 30.0692 53.442 28.9875 53.4942H28.989ZM32.3993 71.2077C32.4313 71.7836 32.334 72.3593 32.115 72.8913C31.896 73.4233 31.5609 73.8977 31.1351 74.2786V74.2603C30.3107 74.988 29.2528 75.3834 28.1613 75.3717C27.7324 75.3926 27.3038 75.324 26.9019 75.1703C26.4999 75.0166 26.1331 74.7808 25.824 74.4776C25.5103 74.113 25.2711 73.6884 25.1205 73.2287C24.9698 72.769 24.9107 72.2834 24.9466 71.8002C24.9093 71.2291 24.9946 70.6566 25.1965 70.1223C25.3985 69.5881 25.7122 69.1049 26.116 68.7063C26.9859 67.9625 28.101 67.5823 29.2358 67.6424H32.2082C32.225 67.6385 32.2425 67.6385 32.2594 67.6424C32.2811 67.6456 32.302 67.6531 32.3209 67.6645C32.3398 67.6759 32.3563 67.691 32.3694 67.709C32.3826 67.7269 32.3921 67.7472 32.3975 67.7689C32.4029 67.7906 32.404 67.8131 32.4008 67.8353L32.3993 71.2077Z" fill="white"/>
<path d="M51.1089 53.4924C49.4655 53.4622 47.8752 54.0843 46.6752 55.2268C46.6617 55.2673 46.6348 55.3017 46.5991 55.3243C46.5635 55.3469 46.5212 55.3563 46.4796 55.3508C46.4511 55.3466 46.4253 55.3314 46.4076 55.3083C46.3899 55.2852 46.3817 55.256 46.3848 55.2268V44.9226C46.3877 44.8982 46.3877 44.8736 46.3848 44.8492C46.3804 44.7885 46.3642 44.7293 46.3372 44.6751C46.3102 44.6208 46.2728 44.5726 46.2273 44.5331C46.1818 44.4937 46.1291 44.4638 46.0721 44.4453C46.0152 44.4267 45.9552 44.4199 45.8956 44.4251H42.1934C42.1509 44.4195 42.1079 44.4195 42.0655 44.4251C41.9531 44.4425 41.8522 44.5045 41.7848 44.5975C41.7173 44.6904 41.6889 44.8068 41.7058 44.9211V78.6C41.6983 78.643 41.6983 78.687 41.7058 78.7301C41.714 78.7865 41.7332 78.8408 41.7621 78.8897C41.7911 78.9386 41.8292 78.9812 41.8744 79.015C41.9195 79.0489 41.9708 79.0733 42.0253 79.0869C42.0798 79.1006 42.1364 79.1031 42.1919 79.0944H45.8941C45.9161 79.0968 45.9383 79.0968 45.9604 79.0944C46.02 79.0904 46.0782 79.0743 46.1317 79.0472C46.1851 79.0201 46.2328 78.9824 46.2718 78.9364C46.3109 78.8904 46.3406 78.837 46.3592 78.7792C46.3778 78.7215 46.385 78.6605 46.3802 78.6V77.8223C46.3775 77.7923 46.383 77.7622 46.396 77.7352C46.409 77.7082 46.4291 77.6854 46.454 77.6692C46.5021 77.6355 46.5578 77.6554 46.6256 77.7197C47.2318 78.3109 47.9531 78.7662 48.7431 79.0562C49.497 79.351 50.2967 79.5066 51.1044 79.5154C52.0518 79.5532 52.9956 79.3765 53.8677 78.9982C54.7399 78.6199 55.5185 78.0494 56.1476 77.3278C57.4467 75.7405 58.1146 73.716 58.0198 71.6529V61.3732C58.1401 59.2811 57.4795 57.2199 56.1702 55.6019C55.531 54.8933 54.746 54.3368 53.8711 53.9722C52.9963 53.6076 52.0531 53.4437 51.1089 53.4924ZM53.3965 71.3315C53.4377 72.3989 53.0808 73.4428 52.3972 74.2539C52.0808 74.6255 51.687 74.9207 51.2445 75.1183C50.802 75.3158 50.3218 75.4106 49.8387 75.3959C49.3663 75.4083 48.8972 75.312 48.4664 75.1143C48.0357 74.9165 47.6544 74.6224 47.351 74.2539C46.6825 73.4357 46.3361 72.3944 46.3787 71.3315V61.6702C46.3358 60.6068 46.6822 59.5649 47.351 58.7463C47.6552 58.3787 48.0367 58.0851 48.4672 57.8872C48.8977 57.6893 49.3664 57.5921 49.8387 57.6027C50.3217 57.5896 50.8015 57.6853 51.2439 57.883C51.6862 58.0807 52.0801 58.3755 52.3972 58.7463C53.0811 59.5577 53.4381 60.6022 53.3965 61.6702V71.3315Z" fill="white"/>
<path d="M77.6039 53.9421L73.5615 53.8916C73.4307 53.881 73.3011 53.9232 73.2008 54.0092C73.1005 54.0952 73.0376 54.2179 73.0257 54.3508L69.5191 72.2435C69.4875 72.3399 69.4514 72.3966 69.4183 72.3966C69.3852 72.3966 69.3551 72.3445 69.3235 72.2435L65.7687 54.3524C65.7714 54.3223 65.7714 54.2921 65.7687 54.262C65.7584 54.202 65.7364 54.1447 65.7041 54.0933C65.6718 54.042 65.6297 53.9978 65.5804 53.9631C65.5311 53.9285 65.4755 53.9042 65.4169 53.8917C65.3583 53.8791 65.2978 53.8786 65.2389 53.89H61.2402C60.9136 53.89 60.748 54.0232 60.748 54.2881L60.7977 54.4412L67.0554 79.0022L67.1036 79.2487C66.9383 80.4898 66.6197 81.7046 66.1555 82.8646C65.8778 83.5825 65.3611 84.1785 64.6956 84.5485C63.9177 84.8845 63.0801 85.0544 62.235 85.0476C62.1925 85.0424 62.1495 85.0424 62.107 85.0476C61.9947 85.065 61.8938 85.1269 61.8264 85.2199C61.7589 85.3129 61.7305 85.4293 61.7474 85.5436V88.4798C61.7462 88.6019 61.779 88.7218 61.8422 88.8257C61.8554 88.8651 61.878 88.9004 61.908 88.9287C61.9379 88.9571 61.9742 88.9774 62.0137 88.988H62.2621C63.8418 89.0573 65.4202 88.822 66.914 88.2945C68.0051 87.8284 68.9075 86.9979 69.4724 85.9401C70.2835 84.3236 70.9048 82.6156 71.3236 80.8515L77.9997 54.4871C78.0318 54.4249 78.0466 54.355 78.0426 54.2849C78.0386 54.2148 78.016 54.1471 77.9771 54.0891C77.9302 54.037 77.8721 53.9967 77.8074 53.9712C77.7426 53.9457 77.673 53.9358 77.6039 53.9421Z" fill="white"/>
<path d="M97.5719 53.4912C96.4807 53.4352 95.3894 53.5991 94.3607 53.9735C93.332 54.3478 92.3861 54.9253 91.5775 55.6727C90.8325 56.4099 90.2484 57.2983 89.8631 58.2803C89.4778 59.2622 89.2999 60.3156 89.3411 61.372V71.6288C89.2955 72.6881 89.4692 73.7453 89.8511 74.7319C90.233 75.7185 90.8145 76.6124 91.558 77.3557C92.3707 78.1042 93.3211 78.6815 94.3543 79.0544C95.3876 79.4272 96.4832 79.5882 97.5779 79.528C99.7898 79.6306 101.954 78.8506 103.608 77.3542C104.358 76.6145 104.945 75.7217 105.33 74.7346C105.716 73.7474 105.891 72.6884 105.845 71.6272V61.3705C105.887 60.3142 105.709 59.2608 105.324 58.2791C104.938 57.2973 104.354 56.4092 103.608 55.6727C101.952 54.1741 99.7865 53.3915 97.5719 53.4912ZM101.184 71.2797C101.234 72.3618 100.867 73.421 100.162 74.2328C99.8342 74.5951 99.434 74.882 98.9884 75.0742C98.5427 75.2664 98.0618 75.3595 97.5779 75.3472C97.0975 75.3615 96.6198 75.2692 96.178 75.0767C95.7361 74.8843 95.3408 74.5963 95.0194 74.2328C94.3252 73.4158 93.9668 72.3583 94.0186 71.2797V61.669C93.9757 60.601 94.3334 59.5563 95.0194 58.7466C95.3363 58.3755 95.7301 58.0804 96.1725 57.8827C96.6149 57.685 97.0949 57.5895 97.5779 57.6031C98.0644 57.5918 98.5474 57.6883 98.9936 57.8857C99.4398 58.0832 99.8384 58.3769 100.162 58.7466C100.862 59.5495 101.228 60.5971 101.184 61.669V71.2797Z" fill="white"/>
<path d="M120.341 53.5439C119.411 53.494 118.482 53.6649 117.629 54.0429C116.775 54.421 116.019 54.996 115.421 55.7223C115.408 55.7631 115.381 55.7977 115.345 55.8204C115.309 55.843 115.266 55.8522 115.224 55.8464C115.196 55.8422 115.17 55.8269 115.152 55.8038C115.135 55.7807 115.126 55.7515 115.129 55.7223V54.3859C115.131 54.3635 115.131 54.341 115.129 54.3186C115.125 54.2579 115.11 54.1987 115.083 54.1443C115.056 54.0899 115.019 54.0414 114.974 54.0017C114.929 53.962 114.876 53.9318 114.819 53.9129C114.763 53.8939 114.703 53.8866 114.643 53.8914H110.941C110.918 53.8896 110.895 53.8896 110.872 53.8914C110.812 53.8953 110.754 53.9112 110.7 53.9383C110.646 53.9653 110.598 54.0029 110.559 54.0489C110.52 54.095 110.49 54.1485 110.472 54.2063C110.453 54.2641 110.446 54.3252 110.45 54.3859V78.6041C110.448 78.6285 110.448 78.6531 110.45 78.6776C110.455 78.7382 110.471 78.7974 110.498 78.8515C110.526 78.9057 110.563 78.9539 110.609 78.9932C110.654 79.0325 110.707 79.0622 110.764 79.0805C110.821 79.0989 110.881 79.1055 110.941 79.1001H114.703C114.763 79.0962 114.822 79.0803 114.875 79.0532C114.929 79.0262 114.977 78.9886 115.016 78.9426C115.055 78.8966 115.085 78.8431 115.104 78.7852C115.122 78.7274 115.13 78.6663 115.125 78.6056V62.2254C115.174 62.2254 115.174 62.1229 115.174 61.9193C115.165 60.7889 115.514 59.6856 116.171 58.7733C116.476 58.4036 116.862 58.1107 117.297 57.9174C117.732 57.7241 118.205 57.6356 118.68 57.6589C119.142 57.6381 119.602 57.7291 120.023 57.9244C120.444 58.1197 120.814 58.4138 121.101 58.7825C121.735 59.7352 122.041 60.8738 121.974 62.0218V78.6041C121.972 78.6285 121.972 78.6531 121.974 78.6776C121.979 78.7381 121.995 78.7971 122.022 78.8512C122.049 78.9052 122.086 78.9533 122.132 78.9926C122.177 79.0319 122.23 79.0616 122.287 79.0801C122.344 79.0985 122.404 79.1053 122.463 79.1001H126.226C126.285 79.096 126.343 79.08 126.397 79.0528C126.45 79.0257 126.498 78.9881 126.537 78.9421C126.576 78.8961 126.606 78.8426 126.624 78.7849C126.643 78.7271 126.65 78.6662 126.645 78.6056V61.6192C126.773 59.4993 126.198 57.3971 125.013 55.6489C124.453 54.9471 123.738 54.3904 122.926 54.0245C122.114 53.6585 121.228 53.4939 120.341 53.5439Z" fill="white"/>
<path d="M145.587 68.7149C144.986 67.7854 144.197 66.9973 143.272 66.4033C142.206 65.7603 141.1 65.1886 139.961 64.6918C138.757 64.1682 137.88 63.7646 137.328 63.4809C136.793 63.2129 136.316 62.8398 135.924 62.3832C135.528 61.8969 135.32 61.2799 135.341 60.6488C135.335 60.5509 135.335 60.4527 135.341 60.3548C135.365 59.9436 135.468 59.5412 135.645 59.1706C135.822 58.8 136.069 58.4685 136.372 58.1951C136.675 57.9217 137.028 57.7117 137.41 57.5771C137.793 57.4426 138.198 57.3861 138.602 57.411C139.041 57.392 139.478 57.4635 139.888 57.6214C140.299 57.7793 140.673 58.0202 140.989 58.3295C141.284 58.6277 141.516 58.9836 141.671 59.3757C141.826 59.7678 141.902 60.1879 141.892 60.6105V60.9565C141.89 60.9794 141.89 61.0024 141.892 61.0254C141.896 61.086 141.912 61.1452 141.939 61.1996C141.965 61.254 142.002 61.3025 142.048 61.3422C142.093 61.3819 142.145 61.4121 142.202 61.4311C142.259 61.45 142.319 61.4573 142.378 61.4525H145.739C145.763 61.4544 145.787 61.4544 145.811 61.4525C145.871 61.4482 145.929 61.432 145.982 61.4048C146.035 61.3776 146.083 61.3399 146.122 61.2939C146.161 61.248 146.19 61.1946 146.209 61.1369C146.227 61.0793 146.234 61.0185 146.23 60.958V60.8049C146.274 59.8293 146.112 58.8553 145.755 57.9489C145.397 57.0425 144.852 56.2248 144.157 55.551C142.542 54.3066 140.574 53.6281 138.548 53.6173C136.522 53.6066 134.547 54.2641 132.92 55.4913C131.809 56.6752 131.102 58.1915 130.904 59.8157C130.706 61.4398 131.028 63.0857 131.821 64.5096C132.392 65.4229 133.149 66.2008 134.041 66.7906C135.047 67.4132 136.097 67.9602 137.182 68.4271C138.352 68.9241 139.22 69.3114 139.787 69.589C140.355 69.8701 140.861 70.2659 141.274 70.7524C141.705 71.2668 141.931 71.9275 141.906 72.6032C141.92 73.0258 141.847 73.4466 141.691 73.8387C141.536 74.2308 141.301 74.5854 141.003 74.8796C140.687 75.1816 140.316 75.4163 139.91 75.5696C139.504 75.7229 139.071 75.7917 138.639 75.7721C137.711 75.7991 136.807 75.4713 136.106 74.8536C135.784 74.5789 135.526 74.2349 135.351 73.8465C135.176 73.4582 135.088 73.0351 135.093 72.6078V72.2619C135.095 72.2384 135.095 72.2149 135.093 72.1914C135.089 72.1307 135.073 72.0713 135.047 72.0167C135.02 71.9621 134.983 71.9135 134.938 71.8736C134.893 71.8337 134.84 71.8034 134.783 71.7844C134.726 71.7653 134.666 71.758 134.607 71.7628H131.159C131.134 71.7609 131.11 71.7609 131.085 71.7628C131.025 71.7672 130.967 71.7837 130.913 71.8114C130.86 71.8391 130.812 71.8774 130.773 71.924C130.734 71.9706 130.705 72.0246 130.687 72.0829C130.669 72.1412 130.663 72.2025 130.668 72.2634V72.7226C130.631 73.6467 130.802 74.5673 131.17 75.4132C131.538 76.2591 132.091 77.0078 132.789 77.6015C134.511 78.7812 136.544 79.4035 138.621 79.3865C140.697 79.3696 142.72 78.7142 144.424 77.5066C145.14 76.8804 145.708 76.097 146.084 75.2153C146.46 74.3336 146.634 73.3766 146.594 72.4165C146.634 71.1074 146.283 69.8166 145.587 68.7149Z" fill="white"/>
<path d="M84.4816 44.4258H81.3362C81.1396 44.4262 80.9513 44.5059 80.8125 44.6474C80.6737 44.7889 80.5957 44.9806 80.5957 45.1805V70.3003V77.6484C80.5967 77.7697 80.6213 77.8896 80.668 78.0012C80.7148 78.1127 80.7828 78.2138 80.8682 78.2984C80.9535 78.3831 81.0545 78.4498 81.1653 78.4945C81.2761 78.5393 81.3945 78.5613 81.5137 78.5593H84.316C84.5555 78.5593 84.7852 78.4625 84.9545 78.2903C85.1239 78.118 85.219 77.8844 85.219 77.6408V69.4002V45.1805C85.219 44.9811 85.1415 44.7899 85.0033 44.6484C84.8651 44.507 84.6776 44.427 84.4816 44.4258Z" fill="white"/>
<g filter="url(#filter0_d)">
<path d="M40.1758 22.0928C40.1415 22.1643 40.1237 22.2428 40.1237 22.3224C40.1237 22.402 40.1415 22.4805 40.1758 22.552L41.3286 25.1683C41.3286 25.1683 42.3324 26.9869 41.437 28.2407C40.6138 29.4133 35.8685 37.7412 35.1537 38.995C35.1275 39.0448 35.0877 39.0858 35.0391 39.1129C34.9905 39.1401 34.9351 39.1523 34.8798 39.1481L29.7628 38.8495C29.6871 38.8448 29.6162 38.8101 29.5653 38.7529C29.5144 38.6957 29.4875 38.6205 29.4904 38.5434C29.4946 38.4883 29.5133 38.4354 29.5446 38.3903L35.6894 29.3368C35.7318 29.274 35.7595 29.2022 35.7705 29.1269C35.7814 29.0515 35.7753 28.9746 35.7527 28.902L33.7962 22.9501C33.7696 22.8693 33.7152 22.8011 33.643 22.758C33.5707 22.7149 33.4856 22.7 33.4034 22.7158L30.124 23.342C29.0274 23.5 27.9962 23.9675 27.1474 24.6913C26.2986 25.415 25.6661 26.3662 25.3216 27.437C24.0935 31.1907 22.5238 35.3975 22.5238 35.3975C22.2975 36.1686 21.8183 36.8375 21.166 37.2929C20.5137 37.7484 19.7277 37.9627 18.939 37.9004C16.0569 37.7887 9.65924 37.7887 9.65924 37.7887C9.65924 37.7887 7.25126 38.0229 8.54103 34.2677C10.2688 29.199 13.4638 22.4342 12.454 17.7727C11.4442 13.1112 10.5577 14.3543 13.6896 13.5552C16.8215 12.7561 24.7572 11.3921 24.7572 11.3921C25.3955 11.9006 26.1829 12.1769 26.9936 12.1769C27.8044 12.1769 28.5918 11.9006 29.2301 11.3921C31.9149 9.68519 45.7728 2.06764 66.9058 3.09485C88.0388 4.12206 117.634 11.5375 146.17 23.9757C147.358 24.3626 148.58 24.6262 149.82 24.7626C150.973 24.7626 150.973 30.2262 147.323 29.9323C141.47 29.2844 135.706 27.9746 130.138 26.0271C123.325 23.6818 111.9 19.8761 106.239 19.1887C106.719 21.9275 108.258 28.6663 103.743 30.7176C99.7103 32.8068 95.8367 35.2 92.155 37.8775C92.0861 37.925 92.0049 37.9504 91.9217 37.9504C91.8385 37.9504 91.7572 37.925 91.6884 37.8775L87.175 34.9857C87.1396 34.9633 87.109 34.9341 87.0847 34.8996C87.0605 34.8652 87.0432 34.8262 87.0339 34.785C87.0245 34.7437 87.0232 34.701 87.0301 34.6593C87.0371 34.6175 87.052 34.5776 87.0741 34.5417C87.0992 34.4998 87.1338 34.4646 87.175 34.4391C91.0007 31.7788 95.0516 29.4698 99.2795 27.5396C99.2889 27.5392 99.2977 27.5351 99.3041 27.5283C99.3106 27.5214 99.3142 27.5123 99.3142 27.5028C99.3138 27.4936 99.31 27.4849 99.3036 27.4784C99.2972 27.4718 99.2886 27.468 99.2795 27.4676C95.1384 28.7002 91.0926 30.2424 87.175 32.0816L84.8287 33.2543C84.7664 33.286 84.6964 33.299 84.6271 33.2917C84.5578 33.2844 84.492 33.257 84.4374 33.2129L80.3258 29.8359C80.3087 29.823 80.2943 29.8069 80.2834 29.7883C80.2726 29.7698 80.2655 29.7492 80.2625 29.7278C80.2596 29.7064 80.2609 29.6846 80.2663 29.6638C80.2717 29.6429 80.2812 29.6233 80.2942 29.6062C80.3142 29.5796 80.3414 29.5594 80.3724 29.5481L83.0483 28.6295C86.2088 27.2166 92.7795 24.5238 92.7795 24.5238C92.7795 24.5238 95.9084 21.903 93.5576 20.3139C91.2068 18.7249 84.8407 16.6736 74.5361 16.793C66.0809 17.1107 57.6474 17.8705 49.2689 19.0693C49.2689 19.0693 51.2811 28.85 49.2689 31.9163C47.4298 34.6718 43.0428 39.9502 42.2241 40.9284C42.1832 40.9822 42.1322 41.027 42.0741 41.0604C42.0159 41.0938 41.9518 41.115 41.8855 41.1229C39.8966 41.2845 37.8951 41.1441 35.9468 40.7065C35.9017 40.6928 35.861 40.6671 35.8287 40.6322C35.7965 40.5973 35.774 40.5543 35.7635 40.5076C35.7529 40.4609 35.7547 40.4122 35.7687 40.3665C35.7826 40.3208 35.8083 40.2796 35.843 40.2472C38.5285 37.0753 41.0305 33.7472 43.3363 30.2798C43.3363 30.2798 46.134 27.3191 44.456 25.7301C44.4409 25.7332 40.9945 20.6614 40.1758 22.0928Z" fill="#FF8F4E"/>
</g>
<defs>
<filter id="filter0_d" x="2.16113" y="0" width="154.339" height="50.1878" filterUnits="userSpaceOnUse" color-interpolation-filters="sRGB">
<feFlood flood-opacity="0" result="BackgroundImageFix"/>
<feColorMatrix in="SourceAlpha" type="matrix" values="0 0 0 0 0 0 0 0 0 0 0 0 0 0 0 0 0 0 127 0"/>
<feOffset dy="3"/>
<feGaussianBlur stdDeviation="3"/>
<feColorMatrix type="matrix" values="0 0 0 0 0 0 0 0 0 0 0 0 0 0 0 0 0 0 0.231 0"/>
<feBlend mode="normal" in2="BackgroundImageFix" result="effect1_dropShadow"/>
<feBlend mode="normal" in="SourceGraphic" in2="effect1_dropShadow" result="shape"/>
</filter>
</defs>
</svg>
