<svg width="22" height="20" viewBox="0 0 22 20" fill="none" xmlns="http://www.w3.org/2000/svg">
<g clip-path="url(#clip0)">
<path d="M19.0189 12.6595H3.31243C1.70739 12.6595 0.446289 11.4893 0.446289 9.99991C0.446289 8.51054 1.70739 7.34033 3.31243 7.34033H19.0189C20.6239 7.34033 21.885 8.51054 21.885 9.99991C21.9997 11.4893 20.6239 12.6595 19.0189 12.6595Z" fill="#161616"/>
<path d="M11.2226 20C9.61755 20 8.35645 18.8298 8.35645 17.3404V2.65957C8.35645 1.17021 9.61755 0 11.2226 0C12.8276 0 14.0887 1.17021 14.0887 2.65957V17.234C14.0887 18.7234 12.8276 20 11.2226 20Z" fill="#161616"/>
</g>
<defs>
<clipPath id="clip0">
<rect width="21.5534" height="20" fill="white" transform="translate(0.446289)"/>
</clipPath>
</defs>
</svg>
