<svg xmlns="http://www.w3.org/2000/svg" xmlns:xlink="http://www.w3.org/1999/xlink" width="33.156" height="21.997" viewBox="0 0 33.156 21.997">
  <defs>
    <filter id="Path_207" x="0" y="0" width="33.156" height="21.997" filterUnits="userSpaceOnUse">
      <feOffset dy="3" input="SourceAlpha"/>
      <feGaussianBlur stdDeviation="3" result="blur"/>
      <feFlood flood-opacity="0.231"/>
      <feComposite operator="in" in2="blur"/>
      <feComposite in="SourceGraphic"/>
    </filter>
  </defs>
  <g id="Group_802" data-name="Group 802" transform="translate(-30.869 -1606)">
    <rect id="Rectangle_407" data-name="Rectangle 407" width="20" height="20" transform="translate(37 1606)" fill="#fff"/>
    <g id="Group_801" data-name="Group 801">
      <g id="logo" transform="translate(-7506.497 935.465)">
        <path id="Path_199" data-name="Path 199" d="M32.717,40.806a.671.671,0,0,0-.472.182.02.02,0,0,1-.021.013.012.012,0,0,1-.011-.013V39.909a.054.054,0,0,0,0-.014.046.046,0,0,0-.052-.038h-.4a.049.049,0,0,0-.045.052v3.526a.043.043,0,0,0,0,.007.048.048,0,0,0,.052.045h.408a.045.045,0,0,0,.038-.052v-.081a.018.018,0,0,1,.008-.015s.011,0,.018.005a.649.649,0,0,0,.226.14.72.72,0,0,0,.252.048.683.683,0,0,0,.537-.229.864.864,0,0,0,.2-.594V41.631a.873.873,0,0,0-.2-.6A.686.686,0,0,0,32.717,40.806Zm.244,1.867a.443.443,0,0,1-.106.306.347.347,0,0,1-.273.12.334.334,0,0,1-.264-.12.45.45,0,0,1-.1-.306V41.662a.449.449,0,0,1,.1-.306.336.336,0,0,1,.264-.12.35.35,0,0,1,.273.12.442.442,0,0,1,.106.306Z" transform="translate(7513.781 641.013)" fill="#383533"/>
        <path id="Path_200" data-name="Path 200" d="M43.877,44.826a.872.872,0,0,0-.591.208.765.765,0,0,0-.265.539.053.053,0,0,0,0,.014.046.046,0,0,0,.052.038H43.5a.049.049,0,0,0,.045-.052.368.368,0,0,1,.1-.228.3.3,0,0,1,.219-.089.328.328,0,0,1,.27.133.551.551,0,0,1,.1.35v.15a.016.016,0,0,1,0,.006.018.018,0,0,1-.02.015h-.3a1.13,1.13,0,0,0-.713.21.784.784,0,0,0-.272.661.709.709,0,0,0,.226.6.846.846,0,0,0,.521.168.648.648,0,0,0,.534-.221c.007-.005.013-.009.018-.005a.017.017,0,0,1,.008.015v.114a.04.04,0,0,0,0,.008.048.048,0,0,0,.052.044h.4a.048.048,0,0,0,.045-.052V45.694a.824.824,0,0,0-.862-.868Zm.363,1.854a.4.4,0,0,1-.135.321v0a.476.476,0,0,1-.317.116.335.335,0,0,1-.249-.094.382.382,0,0,1-.093-.28.413.413,0,0,1,.125-.324.478.478,0,0,1,.332-.111h.322a.018.018,0,0,1,.015.02Z" transform="translate(7504.706 636.994)" fill="#383533"/>
        <path id="Path_201" data-name="Path 201" d="M55.963,40.806a.674.674,0,0,0-.472.182A.019.019,0,0,1,55.47,41a.012.012,0,0,1-.01-.013V39.909a.033.033,0,0,0,0-.008.048.048,0,0,0-.052-.044H55a.046.046,0,0,0-.038.052v3.526a.039.039,0,0,0,0,.014.045.045,0,0,0,.052.038h.4a.048.048,0,0,0,.045-.052v-.081a.017.017,0,0,1,.008-.015c.005,0,.011,0,.018.005a.64.64,0,0,0,.226.14.722.722,0,0,0,.251.048A.682.682,0,0,0,56.5,43.3a.865.865,0,0,0,.2-.594V41.631a.871.871,0,0,0-.2-.6A.684.684,0,0,0,55.963,40.806Zm.244,1.867a.443.443,0,0,1-.106.306.347.347,0,0,1-.272.12.334.334,0,0,1-.265-.12.45.45,0,0,1-.1-.306V41.662a.45.45,0,0,1,.1-.306.337.337,0,0,1,.265-.12.349.349,0,0,1,.272.12.443.443,0,0,1,.106.306Z" transform="translate(7494.976 641.013)" fill="#383533"/>
        <path id="Path_202" data-name="Path 202" d="M67.375,45.048l-.43-.005a.053.053,0,0,0-.057.048l-.373,1.873c0,.01-.007.015-.011.015s-.007-.005-.01-.015l-.379-1.873a.05.05,0,0,0,0-.009.049.049,0,0,0-.056-.039h-.425c-.035,0-.052.014-.052.042l.005.016.666,2.572.005.026a1.558,1.558,0,0,1-.1.379.345.345,0,0,1-.156.176.656.656,0,0,1-.262.052h-.014a.046.046,0,0,0-.038.052v.307a.068.068,0,0,0,.01.036.026.026,0,0,0,.018.017h.026a1.335,1.335,0,0,0,.5-.073.554.554,0,0,0,.272-.246,2.423,2.423,0,0,0,.2-.533l.711-2.76a.041.041,0,0,0,0-.042A.049.049,0,0,0,67.375,45.048Z" transform="translate(7486.385 636.818)" fill="#383533"/>
        <path id="Path_203" data-name="Path 203" d="M82.394,44.828a.883.883,0,0,0-.638.228.789.789,0,0,0-.238.6v1.073a.792.792,0,0,0,.236.6.884.884,0,0,0,.64.227.9.9,0,0,0,.643-.227.787.787,0,0,0,.238-.6V45.653a.787.787,0,0,0-.238-.6A.907.907,0,0,0,82.394,44.828Zm.384,1.862a.436.436,0,0,1-.109.309.362.362,0,0,1-.275.117A.353.353,0,0,1,82.122,47a.44.44,0,0,1-.107-.309V45.684a.441.441,0,0,1,.107-.306.348.348,0,0,1,.272-.12.358.358,0,0,1,.275.12.434.434,0,0,1,.109.306Z" transform="translate(7473.493 636.991)" fill="#383533"/>
        <path id="Path_204" data-name="Path 204" d="M94.34,44.856a.639.639,0,0,0-.524.228.019.019,0,0,1-.021.013.012.012,0,0,1-.01-.013v-.14a.042.042,0,0,0,0-.007.049.049,0,0,0-.052-.045h-.4a.048.048,0,0,0-.045.052v2.535a.034.034,0,0,0,0,.008.048.048,0,0,0,.052.044h.4a.049.049,0,0,0,.045-.052V45.764c.005,0,.005-.011.005-.031A.55.55,0,0,1,93.9,45.4a.328.328,0,0,1,.267-.117.311.311,0,0,1,.258.118.547.547,0,0,1,.093.339v1.736a.049.049,0,0,0,0,.008.048.048,0,0,0,.052.044h.4a.048.048,0,0,0,.045-.052V45.7a.994.994,0,0,0-.174-.625A.6.6,0,0,0,94.34,44.856Z" transform="translate(7463.971 636.969)" fill="#383533"/>
        <path id="Path_205" data-name="Path 205" d="M106.142,46.48a.817.817,0,0,0-.246-.242,3.043,3.043,0,0,0-.353-.179q-.193-.082-.281-.127a.481.481,0,0,1-.149-.115.27.27,0,0,1-.062-.182.232.232,0,0,1,0-.031.328.328,0,0,1,.347-.308.345.345,0,0,1,.254.1.327.327,0,0,1,.1.239v.036a.043.043,0,0,0,0,.007.048.048,0,0,0,.052.045h.365a.048.048,0,0,0,.045-.052v-.015a.714.714,0,0,0-.221-.55,1,1,0,0,0-1.2-.006.8.8,0,0,0-.117.944.791.791,0,0,0,.236.239,2.572,2.572,0,0,0,.335.171q.187.078.277.122a.5.5,0,0,1,.158.122.282.282,0,0,1,.067.194.317.317,0,0,1-.1.238.345.345,0,0,1-.252.093.4.4,0,0,1-.27-.1.3.3,0,0,1-.109-.236v-.036a.049.049,0,0,0-.052-.052H104.6a.049.049,0,0,0-.044.052V46.9a.632.632,0,0,0,.226.511,1.1,1.1,0,0,0,1.239-.01.665.665,0,0,0,.231-.533A.677.677,0,0,0,106.142,46.48Z" transform="translate(7454.857 636.932)" fill="#383533"/>
        <path id="Path_206" data-name="Path 206" d="M77.054,39.859h-.335a.079.079,0,0,0-.079.079v2.629h0v.77a.1.1,0,0,0,.1.1h.3a.1.1,0,0,0,.1-.1v-.863h0V39.938A.079.079,0,0,0,77.054,39.859Z" transform="translate(7477.438 641.011)" fill="#383533"/>
        <g transform="matrix(1, 0, 0, 1, 7537.37, 670.53)" filter="url(#Path_207)">
          <path id="Path_207-2" data-name="Path 207" d="M48.051,24.338a.055.055,0,0,0,0,.048l.123.274s.107.19.012.322-.593.994-.669,1.126a.03.03,0,0,1-.029.016l-.545-.031a.031.031,0,0,1-.029-.032.033.033,0,0,1,.006-.016l.654-.948a.052.052,0,0,0,.007-.046l-.208-.623a.037.037,0,0,0-.042-.024l-.349.066a.631.631,0,0,0-.512.43c-.131.393-.3.834-.3.834a.369.369,0,0,1-.381.261c-.307-.012-.988-.012-.988-.012s-.256.024-.119-.368a3.889,3.889,0,0,0,.417-1.727c-.107-.488-.2-.358.132-.441s1.178-.226,1.178-.226a.386.386,0,0,0,.476,0A7.308,7.308,0,0,1,50.9,22.35a26.39,26.39,0,0,1,8.44,2.186,1.968,1.968,0,0,0,.389.082c.123,0,.123.572-.266.541a8.433,8.433,0,0,1-1.83-.409,17.383,17.383,0,0,0-2.545-.716c.051.287.215.992-.266,1.207a9.656,9.656,0,0,0-1.233.749.044.044,0,0,1-.05,0l-.482-.3a.034.034,0,0,1-.011-.046.032.032,0,0,1,.011-.011,8.321,8.321,0,0,1,1.289-.722,0,0,0,0,0,0,0,0,0,0,0,0,0,0,9.324,9.324,0,0,0-1.289.483l-.25.123a.039.039,0,0,1-.042,0l-.438-.354a.017.017,0,0,1,0-.024.018.018,0,0,1,.008-.006l.285-.1c.337-.148,1.036-.43,1.036-.43s.333-.274.083-.441a4.015,4.015,0,0,0-2.025-.368,26.278,26.278,0,0,0-2.69.238s.214,1.024,0,1.345c-.2.288-.663.841-.75.943a.053.053,0,0,1-.036.02,2.142,2.142,0,0,1-.632-.044.028.028,0,0,1-.011-.049,11.307,11.307,0,0,0,.8-1.043s.3-.31.119-.476C48.505,24.719,48.138,24.188,48.051,24.338Z" transform="translate(-35.64 -16.34)" fill="#ff8f4e"/>
        </g>
      </g>
    </g>
  </g>
</svg>
