<svg width="31" height="30" viewBox="0 0 31 30" fill="none" xmlns="http://www.w3.org/2000/svg">
<g clip-path="url(#clip0)">
<path d="M22.6886 11.7653L11.6269 22.071C10.4966 23.1242 8.72023 23.1242 7.58984 22.071C6.45945 21.0179 6.45945 19.363 7.58984 18.3098L18.6515 8.00412C19.7819 6.95098 21.5582 6.95098 22.6886 8.00412C23.8997 8.98203 23.819 10.7122 22.6886 11.7653Z" fill="#FF8F4E"/>
<path d="M22.7694 22.0711C21.639 23.1242 19.8626 23.1242 18.7322 22.0711L7.58984 11.6902C6.45945 10.637 6.45945 8.98211 7.58984 7.92897C8.72023 6.87583 10.4966 6.87583 11.6269 7.92897L22.6886 18.2347C23.819 19.2878 23.8997 21.018 22.7694 22.0711Z" fill="#FF8F4E"/>
</g>
<defs>
<clipPath id="clip0">
<rect width="20.7465" height="20.7465" fill="white" transform="matrix(0.731666 -0.681663 0.731666 0.681663 0 15)"/>
</clipPath>
</defs>
</svg>
