<svg width="60" height="60" viewBox="0 0 60 60" fill="none" xmlns="http://www.w3.org/2000/svg">
<circle cx="30" cy="30" r="29" stroke="white" stroke-width="2"/>
<g clip-path="url(#clip0)">
<path d="M26.1228 39C25.9431 39 25.7186 38.9529 25.5838 38.8586C25.2246 38.623 25 38.2461 25 37.822V22.178C25 21.7539 25.2246 21.377 25.5838 21.1414C25.8982 20.9529 26.3473 20.9529 26.7066 21.1414L39.4611 28.9634C39.8204 29.1518 40 29.5759 40 30C40 30.4241 39.7754 30.801 39.4611 31.0366L26.7066 38.8115C26.5269 38.9529 26.3024 39 26.1228 39ZM27.2455 24.2513V35.7487L36.6317 30L27.2455 24.2513Z" fill="#FF8F4E"/>
</g>
<defs>
<clipPath id="clip0">
<rect width="15" height="18" fill="white" transform="translate(25 21)"/>
</clipPath>
</defs>
</svg>
