<svg width="20" height="20" viewBox="0 0 20 20" fill="none" xmlns="http://www.w3.org/2000/svg">
<g clip-path="url(#clip0)">
<path d="M18.9308 8.79142C18.1348 6.05634 17.237 4.64313 17.2225 4.61778C17.1714 4.55532 15.9028 3.0372 12.8452 1.91431L12.4412 3.01431C13.8958 3.54853 14.9277 4.20024 15.4953 4.62134C13.8009 4.11536 11.7852 3.80548 10 3.80548C8.21477 3.80548 6.1991 4.11536 4.50473 4.62134C5.07223 4.20028 6.10418 3.54853 7.55875 3.01431L7.15473 1.91431C4.09727 3.0372 2.82867 4.55532 2.7775 4.61778C2.76301 4.64313 1.86523 6.05634 1.06922 8.79142C0.302031 11.4272 0.0105859 15.1455 0 15.2946C0.0683594 15.4015 1.64062 18.0859 5.92551 18.0859L7.0116 16.5131C5.7948 16.19 4.63453 15.669 3.57242 14.962L4.22176 13.9865C5.93523 15.127 7.93332 15.7299 10 15.7299C12.0667 15.7299 14.0648 15.127 15.7782 13.9865L16.4276 14.962C15.3655 15.669 14.2052 16.19 12.9884 16.5131L14.0745 18.0859C18.3594 18.0859 19.9316 15.4015 20 15.2946C19.9894 15.1455 19.698 11.4272 18.9308 8.79142ZM7.2907 11.8571H6.11883V9.90399H7.2907V11.8571ZM13.8812 11.8571H12.7093V9.90399H13.8812V11.8571Z" fill="#898A8B"/>
</g>
<defs>
<clipPath id="clip0">
<rect width="20" height="20" fill="white"/>
</clipPath>
</defs>
</svg>
