<svg width="20" height="20" viewBox="0 0 20 20" fill="none" xmlns="http://www.w3.org/2000/svg">
<g clip-path="url(#clip0)">
<path d="M18.4042 3.94399L20 2.41733V2.08316H14.4717L10.5317 11.8898L6.04917 2.08316H0.2525V2.41733L2.11667 4.66149C2.29833 4.82733 2.39333 5.06983 2.36917 5.31399V14.1332C2.42667 14.4507 2.32333 14.7773 2.1 15.0082L0 17.5532V17.8832H5.95417V17.549L3.85417 15.0082C3.62667 14.7765 3.51917 14.4557 3.565 14.1332V6.50483L8.79167 17.8873H9.39917L13.8933 6.50483V15.5723C13.8933 15.8115 13.8933 15.8607 13.7367 16.0173L12.12 17.5815V17.9165H19.9633V17.5823L18.405 16.0565C18.2683 15.9532 18.1975 15.7798 18.2267 15.6115V4.38899C18.1975 4.21983 18.2675 4.04649 18.4042 3.94399Z" fill="#898A8B"/>
</g>
<defs>
<clipPath id="clip0">
<rect width="20" height="20" fill="white"/>
</clipPath>
</defs>
</svg>
