<svg width="58" height="54" viewBox="0 0 58 54" fill="none" xmlns="http://www.w3.org/2000/svg">
<path d="M18.2187 54.0001C17.3508 54.0001 16.7722 54.0001 16.6275 53.9781C15.639 53.9014 4.12687 50.5236 0.631032 49.4927C0.160901 49.3501 -0.104301 48.8895 0.0524095 48.4618C0.20912 48.0341 0.715414 47.7928 1.18554 47.9354C6.76684 49.5804 15.9163 52.2234 16.7963 52.3441C17.7486 52.3989 33.9621 52.2344 37.6026 52.1796C37.9883 52.1686 38.362 52.1028 38.7116 51.9822L53.5147 45.3143C53.5388 45.3033 53.5749 45.2923 53.5991 45.2814C54.3344 45.0291 54.7442 44.2944 54.5031 43.6473C54.3826 43.3073 54.1174 43.0441 53.7678 42.8906C53.4182 42.7371 53.0325 42.7261 52.6708 42.8358L38.1932 48.1986C38.1691 48.2095 38.1571 48.2095 38.133 48.2205C37.8075 48.3192 37.482 48.3192 37.3615 48.3192C37.2168 48.3192 37.0239 48.3082 36.819 48.2644L23.2696 45.5227C21.9195 45.2375 21.0757 44.0202 21.377 42.7919C21.6905 41.5636 23.0285 40.7959 24.3786 41.0811L29.0438 42.0571L33.2629 42.9235C33.7692 43.0222 34.2755 42.9454 34.7095 42.6822C35.1434 42.43 35.4327 42.0242 35.5292 41.5636C35.71 40.6643 35.047 39.776 34.0223 39.5676L22.6428 37.2317C22.4378 37.1878 22.2209 37.1768 21.9918 37.1988C21.9557 37.1988 21.9074 37.2097 21.8713 37.2097C21.8592 37.2097 21.8472 37.2097 21.8472 37.2097C19.5206 37.2097 13.9032 38.9973 11.9262 39.6992C11.7936 39.7431 11.661 39.765 11.5284 39.7541L0.823906 38.9425C0.329666 38.9096 -0.0440275 38.5038 0.00419104 38.0542C0.0403549 37.6045 0.486376 37.2646 0.980616 37.3084L11.4802 38.109C12.6857 37.6923 18.942 35.5866 21.8351 35.5866C22.245 35.5428 22.6548 35.5647 23.0406 35.6524L34.4201 37.9884C36.373 38.3942 37.6628 40.1489 37.3012 41.9036C37.1083 42.8138 36.5418 43.5815 35.6979 44.086C34.8541 44.5905 33.8415 44.755 32.853 44.5576L28.6339 43.6912L23.9688 42.7151C23.5951 42.6384 23.2214 42.8467 23.137 43.1977C23.0526 43.5376 23.2817 43.8776 23.6674 43.9544L37.2168 46.6961C37.265 46.7071 37.3374 46.7071 37.3856 46.7071C37.3976 46.7071 37.4097 46.7071 37.4338 46.7071C37.47 46.7071 37.5302 46.7071 37.5664 46.6961L52.0199 41.3333C52.0319 41.3333 52.032 41.3223 52.044 41.3223C52.8758 41.0372 53.7678 41.0811 54.5634 41.432C55.359 41.7829 55.9497 42.3971 56.239 43.1538C56.7815 44.6453 55.9256 46.2574 54.2982 46.8387L39.5072 53.4956C39.4831 53.5066 39.471 53.5175 39.4469 53.5175C38.8683 53.7259 38.2656 53.8465 37.6508 53.8575C35.4327 53.8575 22.7754 54.0001 18.2187 54.0001Z" fill="#FF8F4E"/>
<path d="M32.6124 35.0823C31.5877 35.0823 30.551 34.841 29.6349 34.3585L18.0986 28.2939C16.2663 27.3289 15.1211 25.5303 15.1211 23.6002V11.4821C15.1211 9.55194 16.2663 7.75341 18.0986 6.78835L29.6349 0.723798C31.4672 -0.241266 33.7575 -0.241266 35.5898 0.723798L47.1261 6.78835C48.9584 7.75341 50.1036 9.55194 50.1036 11.4821V23.6002C50.1036 25.5303 48.9584 27.3289 47.1261 28.2939L35.5898 34.3585C34.6737 34.841 33.637 35.0823 32.6124 35.0823ZM32.6124 1.645C31.8891 1.645 31.1779 1.80949 30.539 2.14946L19.0027 8.21401C17.7249 8.88297 16.9293 10.1332 16.9293 11.4821V23.6002C16.9293 24.9491 17.7249 26.1993 19.0027 26.8683L30.539 32.9328C31.8167 33.6018 33.408 33.6018 34.6857 32.9328L46.222 26.8683C47.4998 26.1993 48.2954 24.9491 48.2954 23.6002V11.4821C48.2954 10.1332 47.4998 8.88297 46.222 8.21401L34.6857 2.14946C34.0469 1.80949 33.3236 1.645 32.6124 1.645Z" fill="#FF8F4E"/>
<path d="M26.6101 27.6586C26.2484 27.6586 25.9109 27.4612 25.7662 27.1432L20.7633 15.8253V22.6248C20.7633 23.0745 20.3535 23.4473 19.8592 23.4473C19.365 23.4473 18.9551 23.0745 18.9551 22.6248V11.5811C18.9551 11.1863 19.2565 10.8463 19.6904 10.7696C20.1124 10.6928 20.5343 10.9012 20.7031 11.2741L25.7059 22.5919V7.68788C25.7059 7.23823 26.1158 6.86536 26.6101 6.86536C27.1043 6.86536 27.5142 7.23823 27.5142 7.68788V26.8361C27.5142 27.2309 27.2128 27.5709 26.7788 27.6477C26.7186 27.6586 26.6583 27.6586 26.6101 27.6586Z" fill="white"/>
<path d="M31.2743 30.8719C30.78 30.8719 30.3701 30.499 30.3701 30.0494V4.29906C30.3701 4.01392 30.5389 3.73975 30.8041 3.59718C31.0814 3.44364 31.4189 3.44364 31.6962 3.57524L38.5555 6.89822C39.0016 7.11756 39.1583 7.61107 38.9292 8.00588C38.6881 8.41165 38.1457 8.55422 37.7117 8.34585L32.1904 5.65896V30.0494C32.1784 30.499 31.7806 30.8719 31.2743 30.8719Z" fill="white"/>
<path d="M37.6993 18.4024H31.286C30.7917 18.4024 30.3818 18.0295 30.3818 17.5798C30.3818 17.1302 30.7917 16.7573 31.286 16.7573H37.6993C38.1935 16.7573 38.6034 17.1302 38.6034 17.5798C38.6034 18.0405 38.1935 18.4024 37.6993 18.4024Z" fill="white"/>
<path d="M45.5597 11.9977C45.4271 11.9977 45.2825 11.9648 45.1499 11.91L39.7853 9.44245C39.3393 9.23408 39.1585 8.74057 39.3875 8.33479C39.6165 7.92902 40.159 7.76451 40.6051 7.97289L45.9575 10.4404C46.4036 10.6488 46.5844 11.1423 46.3554 11.5481C46.1986 11.8332 45.8852 11.9977 45.5597 11.9977Z" fill="white"/>
<path d="M42.6424 26.2328C42.1482 26.2328 41.7383 25.8599 41.7383 25.4102V9.87013C41.7383 9.42048 42.1482 9.04761 42.6424 9.04761C43.1367 9.04761 43.5465 9.42048 43.5465 9.87013V25.4102C43.5465 25.8599 43.1367 26.2328 42.6424 26.2328Z" fill="white"/>
<path d="M44.3055 36.6173C43.8112 36.6173 43.4014 36.2445 43.4014 35.7948V35.5316C43.4014 35.082 43.8112 34.7091 44.3055 34.7091C44.7998 34.7091 45.2096 35.082 45.2096 35.5316V35.8058C45.2096 36.2554 44.7998 36.6173 44.3055 36.6173Z" fill="#FF8F4E"/>
<path d="M44.3055 41.1358C43.8112 41.1358 43.4014 40.7629 43.4014 40.3132V40.0391C43.4014 39.5894 43.8112 39.2166 44.3055 39.2166C44.7998 39.2166 45.2096 39.5894 45.2096 40.0391V40.3132C45.2096 40.7629 44.7998 41.1358 44.3055 41.1358Z" fill="#FF8F4E"/>
<path d="M41.9789 38.745H41.6776C41.1833 38.745 40.7734 38.3721 40.7734 37.9225C40.7734 37.4729 41.1833 37.1 41.6776 37.1H41.9789C42.4732 37.1 42.8831 37.4729 42.8831 37.9225C42.8831 38.3721 42.4732 38.745 41.9789 38.745Z" fill="#FF8F4E"/>
<path d="M46.934 38.745H46.6326C46.1384 38.745 45.7285 38.3721 45.7285 37.9225C45.7285 37.4729 46.1384 37.1 46.6326 37.1H46.934C47.4283 37.1 47.8382 37.4729 47.8382 37.9225C47.8382 38.3721 47.4403 38.745 46.934 38.745Z" fill="#FF8F4E"/>
<path d="M6.81527 6.3937C6.32101 6.3937 5.91113 6.02082 5.91113 5.57118V5.29701C5.91113 4.84736 6.32101 4.47449 6.81527 4.47449C7.30953 4.47449 7.7194 4.84736 7.7194 5.29701V5.57118C7.7194 6.02082 7.30953 6.3937 6.81527 6.3937Z" fill="#FF8F4E"/>
<path d="M6.81527 10.9011C6.32101 10.9011 5.91113 10.5283 5.91113 10.0786V9.80445C5.91113 9.35481 6.32101 8.98193 6.81527 8.98193C7.30953 8.98193 7.7194 9.35481 7.7194 9.80445V10.0786C7.7194 10.5392 7.30953 10.9011 6.81527 10.9011Z" fill="#FF8F4E"/>
<path d="M4.48871 8.51015H4.18734C3.69308 8.51015 3.2832 8.13727 3.2832 7.68763C3.2832 7.23799 3.69308 6.86511 4.18734 6.86511H4.48871C4.98297 6.86511 5.39285 7.23799 5.39285 7.68763C5.39285 8.14824 4.98297 8.51015 4.48871 8.51015Z" fill="#FF8F4E"/>
<path d="M9.44379 8.51015H9.14241C8.64815 8.51015 8.23828 8.13727 8.23828 7.68763C8.23828 7.23799 8.64815 6.86511 9.14241 6.86511H9.44379C9.93805 6.86511 10.3479 7.23799 10.3479 7.68763C10.3479 8.14824 9.93805 8.51015 9.44379 8.51015Z" fill="#FF8F4E"/>
<path d="M54.4676 3.00478C53.9734 3.00478 53.5635 2.63191 53.5635 2.18226V1.90809C53.5635 1.45845 53.9734 1.08557 54.4676 1.08557C54.9619 1.08557 55.3717 1.45845 55.3717 1.90809V2.18226C55.3717 2.63191 54.9619 3.00478 54.4676 3.00478Z" fill="#FF8F4E"/>
<path d="M54.4676 7.51235C53.9734 7.51235 53.5635 7.13948 53.5635 6.68983V6.41566C53.5635 5.96601 53.9734 5.59314 54.4676 5.59314C54.9619 5.59314 55.3717 5.96601 55.3717 6.41566V6.68983C55.3717 7.15044 54.9619 7.51235 54.4676 7.51235Z" fill="#FF8F4E"/>
<path d="M52.129 5.1216H51.8397C51.3454 5.1216 50.9355 4.74872 50.9355 4.29908C50.9355 3.84944 51.3454 3.47656 51.8397 3.47656H52.1411C52.6353 3.47656 53.0452 3.84944 53.0452 4.29908C53.0331 4.75969 52.6353 5.1216 52.129 5.1216Z" fill="#FF8F4E"/>
<path d="M57.0961 5.1216H56.7948C56.3005 5.1216 55.8906 4.74872 55.8906 4.29908C55.8906 3.84944 56.3005 3.47656 56.7948 3.47656H57.0961C57.5904 3.47656 58.0003 3.84944 58.0003 4.29908C58.0003 4.75969 57.5904 5.1216 57.0961 5.1216Z" fill="#FF8F4E"/>
</svg>
