<svg width="65" height="53" viewBox="0 0 65 53" fill="none" xmlns="http://www.w3.org/2000/svg">
<path d="M31.5841 45.6636H0.987002C0.447441 45.6636 0 45.2175 0 44.6795V0.98413C0 0.446139 0.447441 0 0.987002 0H58.2726C58.8122 0 59.2596 0.446139 59.2596 0.98413V16.5071C59.2596 17.0451 58.8122 17.4913 58.2726 17.4913C57.7331 17.4913 57.2856 17.0451 57.2856 16.5071V1.96826H1.974V43.6954H31.5841C32.1236 43.6954 32.5711 44.1415 32.5711 44.6795C32.5711 45.2175 32.1368 45.6636 31.5841 45.6636Z" fill="#FF8F4E"/>
<path d="M6.90926 41.5314C6.4355 41.5314 5.9091 41.387 5.34322 40.9671C3.93509 39.9436 4.75102 38.6183 5.09318 38.054C5.3169 37.6866 5.52746 37.3454 5.52746 37.0305C5.52746 36.5712 5.43534 36.3744 5.26426 36.0726C5.0537 35.6789 4.77734 35.1409 4.77734 34.1961C4.77734 33.2382 5.06686 32.7133 5.26426 32.3197C5.42218 32.0179 5.52746 31.821 5.52746 31.3617C5.52746 30.9025 5.43534 30.7056 5.26426 30.4038C5.0537 30.0102 4.77734 29.4722 4.77734 28.5274C4.77734 27.5695 5.06686 27.0446 5.26426 26.6509C5.42218 26.3491 5.52746 26.1523 5.52746 25.693C5.52746 25.2337 5.43534 25.0369 5.26426 24.7351C5.0537 24.3414 4.77734 23.8034 4.77734 22.8586C4.77734 21.9007 5.06686 21.3627 5.26426 20.9822C5.42218 20.6804 5.52746 20.4836 5.52746 20.0243C5.52746 19.565 5.42218 19.3682 5.26426 19.0664C5.0537 18.6727 4.77734 18.1347 4.77734 17.1899C4.77734 16.232 5.06686 15.694 5.26426 15.3135C5.42218 15.0117 5.52746 14.8148 5.52746 14.3555C5.52746 13.8963 5.42218 13.6994 5.26426 13.3976C5.0537 13.004 4.77734 12.466 4.77734 11.5212C4.77734 10.5633 5.06686 10.0253 5.26426 9.64472C5.42218 9.34292 5.52746 9.14608 5.52746 8.68681C5.52746 8.37188 5.3169 8.01759 5.09318 7.66329C4.75102 7.09904 3.93509 5.77371 5.34322 4.75019C6.7645 3.71355 7.8831 4.34341 8.6069 4.75019C9.08067 5.01263 9.48863 5.24883 10.0545 5.24883C10.8441 5.24883 11.2126 5.11761 11.66 4.9339C12.1996 4.72395 12.805 4.48775 13.9762 4.48775C15.1343 4.48775 15.7528 4.72395 16.2924 4.9339C16.7398 5.10449 17.0951 5.24883 17.8979 5.24883C18.6875 5.24883 19.056 5.11761 19.5034 4.9339C20.043 4.72395 20.6483 4.48775 21.8196 4.48775C22.9777 4.48775 23.5962 4.72395 24.1357 4.9339C24.5832 5.10449 24.9385 5.24883 25.7413 5.24883C26.5309 5.24883 26.8993 5.11761 27.3468 4.9339C27.8863 4.72395 28.4917 4.48775 29.663 4.48775C30.821 4.48775 31.4396 4.72395 31.9791 4.9339C32.4266 5.10449 32.7819 5.24883 33.5846 5.24883C34.3742 5.24883 34.7427 5.11761 35.1902 4.9339C35.7297 4.72395 36.3351 4.48775 37.5063 4.48775C38.6644 4.48775 39.2829 4.72395 39.8225 4.9339C40.2699 5.10449 40.6253 5.24883 41.428 5.24883C42.2176 5.24883 42.5861 5.11761 43.0335 4.9339C43.5731 4.72395 44.1785 4.48775 45.3497 4.48775C46.5078 4.48775 47.1263 4.72395 47.6659 4.9339C48.1133 5.10449 48.4686 5.24883 49.2714 5.24883C49.8373 5.24883 50.2452 5.02576 50.719 4.75019C51.456 4.34341 52.5614 3.71355 53.9827 4.75019C55.3908 5.77371 54.5749 7.09904 54.2327 7.66329C54.009 8.03071 53.7985 8.37188 53.7985 8.68681C53.7985 9.10672 53.8906 9.5135 54.009 10.0646C54.2327 11.1013 54.5486 12.5185 54.5486 15.1954C54.5486 15.7334 54.1011 16.1795 53.5616 16.1795C53.022 16.1795 52.5746 15.7334 52.5746 15.1954C52.5746 12.7284 52.2982 11.4818 52.0745 10.4845C51.9429 9.85468 51.8113 9.31667 51.8113 8.68681C51.8113 7.80763 52.2324 7.12529 52.5351 6.62665C52.6009 6.52167 52.6799 6.39045 52.7325 6.28547C52.4035 6.0624 52.2982 6.11489 51.6665 6.46918C51.1006 6.78411 50.3374 7.21714 49.2451 7.21714C48.087 7.21714 47.4685 6.98094 46.9289 6.77099C46.4815 6.6004 46.1262 6.45606 45.3234 6.45606C44.5338 6.45606 44.1653 6.58728 43.7179 6.77099C43.1783 6.98094 42.5729 7.21714 41.4017 7.21714C40.2436 7.21714 39.6251 6.98094 39.0855 6.77099C38.6381 6.6004 38.2828 6.45606 37.48 6.45606C36.6904 6.45606 36.3219 6.58728 35.8745 6.77099C35.3349 6.98094 34.7296 7.21714 33.5583 7.21714C32.4002 7.21714 31.7817 6.98094 31.2422 6.77099C30.7947 6.6004 30.4394 6.45606 29.6366 6.45606C28.847 6.45606 28.4785 6.58728 28.0311 6.77099C27.4915 6.98094 26.8862 7.21714 25.7149 7.21714C24.5569 7.21714 23.9383 6.98094 23.3988 6.77099C22.9513 6.6004 22.596 6.45606 21.7933 6.45606C21.0037 6.45606 20.6352 6.58728 20.1877 6.77099C19.6482 6.98094 19.0428 7.21714 17.8716 7.21714C16.7135 7.21714 16.095 6.98094 15.5554 6.77099C15.108 6.6004 14.7526 6.45606 13.9499 6.45606C13.1603 6.45606 12.7918 6.58728 12.3444 6.77099C11.8048 6.98094 11.1994 7.21714 10.0282 7.21714C8.93591 7.21714 8.17262 6.78411 7.60674 6.46918C6.97506 6.11489 6.86978 6.0624 6.54078 6.2986C6.59342 6.40357 6.68554 6.53479 6.73818 6.63977C7.04086 7.13841 7.46198 7.82076 7.46198 8.69994C7.46198 9.65785 7.17246 10.1959 6.97506 10.5764C6.81714 10.8782 6.71186 11.075 6.71186 11.5343C6.71186 11.9936 6.81714 12.1904 6.97506 12.4922C7.18562 12.8859 7.46198 13.4239 7.46198 14.3687C7.46198 15.3266 7.17246 15.8646 6.97506 16.2451C6.81714 16.5469 6.71186 16.7438 6.71186 17.203C6.71186 17.6623 6.81714 17.8591 6.97506 18.1609C7.18562 18.5546 7.46198 19.0926 7.46198 20.0374C7.46198 20.9953 7.17246 21.5333 6.97506 21.9139C6.81714 22.2157 6.71186 22.4125 6.71186 22.8718C6.71186 23.331 6.81714 23.5279 6.97506 23.8297C7.18562 24.2233 7.46198 24.7613 7.46198 25.7061C7.46198 26.664 7.17246 27.1889 6.97506 27.5826C6.81714 27.8844 6.71186 28.0812 6.71186 28.5405C6.71186 28.9998 6.80398 29.1966 6.97506 29.4984C7.18562 29.8921 7.46198 30.4301 7.46198 31.3749C7.46198 32.3328 7.17246 32.8577 6.97506 33.2513C6.81714 33.5531 6.71186 33.75 6.71186 34.2092C6.71186 34.6685 6.80398 34.8653 6.97506 35.1671C7.18562 35.5608 7.46198 36.0988 7.46198 37.0436C7.46198 37.9228 7.04086 38.6051 6.73818 39.1038C6.67238 39.2087 6.59342 39.34 6.54078 39.4449C6.86978 39.668 6.97506 39.6155 7.60674 39.2612C8.17262 38.9463 8.93591 38.5133 10.0282 38.5133C11.1863 38.5133 11.8048 38.7495 12.3444 38.9594C12.7918 39.13 13.1471 39.2744 13.9499 39.2744C14.7395 39.2744 15.108 39.1431 15.5554 38.9594C16.095 38.7495 16.7003 38.5133 17.8716 38.5133C19.0296 38.5133 19.6482 38.7495 20.1877 38.9594C20.6352 39.13 20.9905 39.2744 21.7933 39.2744C22.5829 39.2744 22.9513 39.1431 23.3988 38.9594C23.9383 38.7495 24.5437 38.5133 25.7149 38.5133C26.873 38.5133 27.4915 38.7495 28.0311 38.9594C28.4785 39.13 28.8339 39.2744 29.6366 39.2744C30.4262 39.2744 30.7947 39.1431 31.2422 38.9594C31.7554 38.7626 32.3213 39.0119 32.5187 39.5237C32.7161 40.0354 32.466 40.5997 31.9528 40.7965C31.4132 41.0065 30.8079 41.2427 29.6366 41.2427C28.4785 41.2427 27.86 41.0065 27.3205 40.7965C26.873 40.6259 26.5177 40.4816 25.7149 40.4816C24.9253 40.4816 24.5569 40.6128 24.1094 40.7965C23.5699 41.0065 22.9645 41.2427 21.7933 41.2427C20.6352 41.2427 20.0167 41.0065 19.4771 40.7965C19.0296 40.6259 18.6743 40.4816 17.8716 40.4816C17.082 40.4816 16.7135 40.6128 16.266 40.7965C15.7265 41.0065 15.1211 41.2427 13.9499 41.2427C12.7918 41.2427 12.1733 41.0065 11.6337 40.7965C11.1863 40.6259 10.8309 40.4816 10.0282 40.4816C9.46231 40.4816 9.05435 40.7047 8.58058 40.9802C8.17262 41.2164 7.59358 41.5314 6.90926 41.5314Z" fill="#FF8F4E"/>
<path d="M50.1663 53C49.2188 53 48.2844 52.7376 47.4422 52.2258L37.7827 46.2553C36.2562 45.3105 35.335 43.6702 35.335 41.8725V29.4065C35.335 27.6088 36.2562 25.9686 37.7827 25.0238L47.4422 19.0532C49.1267 18.0166 51.206 18.0166 52.8904 19.0532L62.5499 25.0238C64.0765 25.9686 64.9977 27.6088 64.9977 29.4065V41.8725C64.9977 43.6702 64.0765 45.3105 62.5499 46.2553L52.8904 52.2258C52.0482 52.7376 51.1138 53 50.1663 53ZM50.1663 20.2473C49.5873 20.2473 48.9951 20.4048 48.4818 20.7329L38.8224 26.6903C37.8748 27.2808 37.309 28.2912 37.309 29.4065V41.8725C37.309 42.9879 37.8748 43.9983 38.8224 44.5888L48.4818 50.5593C49.5215 51.2023 50.8112 51.2023 51.8508 50.5593L61.5103 44.5888C62.4578 43.9983 63.0237 42.9879 63.0237 41.8725V29.4065C63.0237 28.2912 62.4578 27.2808 61.5103 26.6903L51.8508 20.7197C51.3376 20.4048 50.7454 20.2473 50.1663 20.2473Z" fill="#FF8F4E"/>
<path d="M50.1666 43.0535C46.0473 43.0535 42.6914 39.7074 42.6914 35.6002C42.6914 31.493 46.0473 28.1469 50.1666 28.1469C54.2859 28.1469 57.6418 31.493 57.6418 35.6002C57.6418 39.7074 54.2859 43.0535 50.1666 43.0535ZM50.1666 30.1152C47.1265 30.1152 44.6655 32.5821 44.6655 35.6002C44.6655 38.6314 47.1397 41.0852 50.1666 41.0852C53.2067 41.0852 55.6677 38.6183 55.6677 35.6002C55.6677 32.569 53.2067 30.1152 50.1666 30.1152Z" fill="white"/>
<path d="M23.8992 16.5469C23.715 16.5469 23.5307 16.4944 23.3728 16.3895C19.8326 14.1325 19.5168 10.5633 19.5036 10.4189C19.4641 9.88091 19.8721 9.40851 20.4117 9.35603C20.9513 9.31666 21.4251 9.72344 21.4777 10.2614C21.4909 10.3927 21.7672 13.0302 24.4388 14.7361C24.8994 15.0248 25.031 15.6415 24.7415 16.1008C24.5441 16.3895 24.2283 16.5469 23.8992 16.5469Z" fill="white"/>
<path d="M30.031 35.81C29.5177 35.81 29.0834 35.4163 29.0439 34.9046L28.1885 23.8951C28.1227 23.0685 27.6357 22.3205 26.8987 21.94L23.7665 20.3391C23.2796 20.0898 23.0953 19.4993 23.3322 19.0137C23.5823 18.5282 24.1745 18.3445 24.6615 18.5807L27.7937 20.1816C29.136 20.864 30.0441 22.2286 30.1494 23.7377L31.0048 34.7471C31.0443 35.2851 30.6363 35.7575 30.0968 35.81C30.0704 35.81 30.0573 35.81 30.031 35.81Z" fill="white"/>
<path d="M25.7025 35.8232H15.6215C15.2135 35.8232 14.8318 35.6395 14.5818 35.3246C14.3449 35.0228 14.2396 34.6422 14.3054 34.2617C14.5291 32.4377 15.9505 30.9811 17.7666 30.6925L24.7154 29.5902V25.4961C24.7154 24.9581 25.1629 24.512 25.7025 24.512C26.242 24.512 26.6895 24.9581 26.6895 25.4961V30.43C26.6895 30.9155 26.3342 31.3223 25.8604 31.4011L18.0825 32.6345C17.3587 32.7526 16.7533 33.225 16.4506 33.8549H25.7025C26.242 33.8549 26.6895 34.301 26.6895 34.839C26.6895 35.3902 26.242 35.8232 25.7025 35.8232Z" fill="white"/>
<path d="M15.6743 30.43C15.6217 30.43 15.5822 30.43 15.5296 30.4169C14.99 30.3382 14.6215 29.8395 14.6873 29.3015L15.4769 23.764C15.7138 22.0713 16.6877 20.5491 18.1222 19.6174L19.4514 18.7514C19.912 18.4496 20.5174 18.5808 20.8201 19.0401C21.1228 19.4993 20.9912 20.103 20.5306 20.4048L19.2014 21.2708C18.2406 21.9007 17.5826 22.9111 17.4247 24.0527L16.635 29.5902C16.5824 30.0757 16.1613 30.43 15.6743 30.43Z" fill="white"/>
<path d="M21.2411 29.3279C20.9779 29.3279 20.7147 29.2229 20.5173 29.013C19.5829 28.0157 18.8064 26.3229 18.2405 23.961C17.8326 22.2682 17.6746 20.8642 17.6615 20.7986C17.5957 20.2605 17.9905 19.775 18.5301 19.7094C19.0696 19.6438 19.5566 20.0375 19.6224 20.5755C19.6356 20.6673 20.0172 23.0293 23.36 23.9347C23.8864 24.0791 24.2023 24.6171 24.0575 25.142C23.9127 25.6668 23.3732 25.9818 22.8467 25.8374C21.9255 25.5881 21.1753 25.2469 20.5568 24.8664C20.9253 25.9949 21.3859 27.0447 21.9781 27.6745C22.3466 28.0682 22.3335 28.698 21.9386 29.0655C21.7281 29.236 21.4912 29.3279 21.2411 29.3279Z" fill="white"/>
<path d="M27.9656 22.4518C27.505 22.4518 27.097 22.1369 27.0049 21.6776L25.4783 14.6704C25.3598 14.1455 25.294 13.6338 25.2151 13.1089C25.0177 11.7048 23.8069 10.642 22.3724 10.642C20.7931 10.642 19.5034 11.9279 19.5034 13.5026V15.9826C19.5034 17.5573 20.7931 18.8432 22.3724 18.8432C22.8462 18.8432 23.2936 18.7383 23.7016 18.5152C24.1885 18.2659 24.7808 18.4496 25.0308 18.922C25.2809 19.4075 25.0966 19.998 24.6228 20.2473C23.9385 20.6147 23.1489 20.7984 22.3724 20.7984C19.7008 20.7984 17.5293 18.6333 17.5293 15.9695V13.4894C17.5293 10.8257 19.7008 8.66052 22.3724 8.66052C24.7808 8.66052 26.847 10.4582 27.176 12.8333C27.2418 13.3189 27.3076 13.7913 27.4129 14.2505L28.9395 21.2577C29.0579 21.7826 28.7158 22.3075 28.1894 22.4256C28.1104 22.4518 28.0314 22.4518 27.9656 22.4518Z" fill="white"/>
</svg>
