<svg width="48" height="54" viewBox="0 0 48 54" fill="none" xmlns="http://www.w3.org/2000/svg">
<path d="M21.4973 12.416C21.3468 12.416 21.1963 12.3727 21.0674 12.2862C15.0699 8.4143 14.5324 2.37935 14.5109 2.11979C14.4787 1.67636 14.8119 1.28701 15.2526 1.24375C15.6932 1.2113 16.0802 1.54658 16.1232 1.99C16.1232 2.04408 16.6391 7.49499 21.938 10.9126C22.3142 11.1506 22.4216 11.6589 22.1852 12.0374C22.024 12.2862 21.766 12.416 21.4973 12.416Z" fill="#FF8F4E"/>
<path d="M30.3112 24.3778C30.0963 24.3778 29.8813 24.2913 29.7308 24.1291C29.0859 23.4477 28.2583 22.8312 27.377 22.377L24.1095 20.6898C23.7118 20.4843 23.5613 19.9976 23.7548 19.5975C23.959 19.1973 24.4427 19.0459 24.8404 19.2406L28.1078 20.9277C29.1397 21.4577 30.1285 22.1931 30.8916 23.0043C31.2033 23.3287 31.1818 23.8371 30.8594 24.1507C30.7089 24.3129 30.5154 24.3778 30.3112 24.3778Z" fill="#FF8F4E"/>
<path d="M20.0465 36.0691H11.9853C11.5769 36.0691 11.233 35.7662 11.19 35.3661C10.9965 33.8411 10.1474 32.7812 8.67488 32.208C7.48183 31.7429 6.32103 31.7646 6.31028 31.7646C6.07382 31.7754 5.8481 31.6672 5.68688 31.4942C5.52566 31.3103 5.46117 31.0724 5.49341 30.8344L6.27803 25.3511C6.63272 22.8636 8.54591 21.7171 10.4053 20.6032C10.803 20.3652 11.2222 20.1165 11.6199 19.8569L14.0167 18.2779C14.3929 18.0291 14.8874 18.1373 15.1346 18.5158C15.3818 18.8943 15.2743 19.3918 14.8981 19.6406L12.5013 21.2196C12.0713 21.5008 11.6414 21.7604 11.233 22.0091C9.49175 23.0474 8.11598 23.8694 7.87952 25.589L7.20238 30.1855C7.73979 30.2504 8.45992 30.3802 9.20155 30.6614C11.0287 31.3644 12.211 32.6622 12.6517 34.4359H20.0465C20.4872 34.4359 20.8526 34.8037 20.8526 35.2471C20.8526 35.7013 20.4979 36.0691 20.0465 36.0691Z" fill="#FF8F4E"/>
<path d="M16.015 32.9218C15.7892 32.9218 15.5743 32.8352 15.4131 32.6514C10.5334 27.1897 11.1568 21.1439 11.1783 20.8843C11.2213 20.5166 11.5115 20.2246 11.8769 20.1705C12.2423 20.1272 12.597 20.3327 12.7368 20.6788C12.7368 20.6896 13.2527 21.9659 14.6177 23.4584C16.4341 25.4484 18.8202 26.8652 21.7115 27.6547C22.1414 27.7737 22.3994 28.2171 22.2812 28.6497C22.1629 29.0823 21.7223 29.3419 21.2923 29.2229C17.0575 28.0657 14.4672 25.8377 12.984 24.0424C13.3387 26.0973 14.2738 28.9201 16.6276 31.5699C16.9286 31.9051 16.8963 32.4134 16.5631 32.7163C16.4019 32.8569 16.2084 32.9218 16.015 32.9218Z" fill="#FF8F4E"/>
<path d="M28.515 22.8636C28.1388 22.8636 27.7949 22.5932 27.7197 22.2038L25.3229 9.76622C25.1187 8.83611 24.979 7.9817 24.8823 7.12729C24.5276 3.98003 21.8944 1.61148 18.7453 1.61148C15.3382 1.61148 12.5653 4.40183 12.5653 7.83028V14.3519C12.5653 16.688 14.4569 18.5915 16.7784 18.5915H17.7457C19.9168 18.5915 21.3785 17.7155 21.7439 16.1905L22.0986 14.7196C22.2061 14.287 22.636 14.0166 23.0766 14.1248C23.5065 14.2329 23.7752 14.6656 23.6678 15.109L23.3131 16.5799C22.7649 18.8619 20.6799 20.2246 17.7457 20.2246H16.7784C13.5648 20.2246 10.9531 17.5965 10.9531 14.3627V7.8411C10.9531 3.51497 14.4462 0 18.7453 0C22.722 0 26.043 2.99584 26.4837 6.95424C26.5697 7.74376 26.7094 8.55491 26.8921 9.43095C26.8921 9.44176 26.8921 9.44176 26.8921 9.45258L29.2889 21.901C29.3748 22.3444 29.0846 22.7662 28.6547 22.8527C28.6117 22.8636 28.558 22.8636 28.515 22.8636Z" fill="#FF8F4E"/>
<path d="M15.4233 42.46C14.9826 42.46 14.6172 42.0923 14.6172 41.6488V35.4841C14.6172 35.0407 14.9826 34.673 15.4233 34.673C15.864 34.673 16.2294 35.0407 16.2294 35.4841V41.6488C16.2294 42.1031 15.8747 42.46 15.4233 42.46Z" fill="#FF8F4E"/>
<path d="M21.8511 49.5438H0.806915C0.548968 49.5438 0.301769 49.4141 0.1513 49.2086C0.000831279 48.9923 -0.0421599 48.7219 0.0438224 48.4731L2.44058 41.3891C2.54806 41.0646 2.85974 40.8375 3.20367 40.8375H20.0454C20.4861 40.8375 20.8515 41.2052 20.8515 41.6487C20.8515 42.0921 20.4861 42.4598 20.0454 42.4598H3.78405L1.93543 47.9215H21.8511C22.2917 47.9215 22.6572 48.2893 22.6572 48.7327C22.6572 49.1761 22.2917 49.5438 21.8511 49.5438Z" fill="#FF8F4E"/>
<path d="M35.3171 54C34.5433 54 33.7802 53.7838 33.0924 53.362L24.6339 48.0842C23.3871 47.3055 22.6348 45.9537 22.6348 44.472V33.4731C22.6348 31.9915 23.3871 30.6396 24.6339 29.8609L33.0924 24.5832C34.4681 23.7288 36.1662 23.7288 37.5419 24.5832L46.0004 29.8609C47.2472 30.6396 47.9995 31.9915 47.9995 33.4731V44.4612C47.9995 45.9429 47.2472 47.2947 46.0004 48.0734L37.5419 53.3511C36.8541 53.7838 36.0802 54 35.3171 54ZM35.3171 25.5673C34.8442 25.5673 34.3606 25.6971 33.9414 25.9675L25.4722 31.2452C24.6983 31.7319 24.2362 32.5647 24.2362 33.4839V44.472C24.2362 45.3913 24.6983 46.224 25.4722 46.7107L33.9307 51.9885C34.7798 52.5184 35.833 52.5184 36.6821 51.9885L45.1406 46.7107C45.9145 46.224 46.3766 45.3913 46.3766 44.472V33.4731C46.3766 32.5538 45.9145 31.7211 45.1406 31.2344L36.6821 25.9567C36.263 25.6971 35.7901 25.5673 35.3171 25.5673Z" fill="#FF8F4E"/>
<path d="M35.318 45.3584C31.8034 45.3584 28.9443 42.4816 28.9443 38.945C28.9443 35.4084 31.8034 32.5315 35.318 32.5315C38.8327 32.5315 41.6917 35.4084 41.6917 38.945C41.6917 42.4816 38.8327 45.3584 35.318 45.3584ZM35.318 34.143C32.6955 34.143 30.5566 36.2952 30.5566 38.9342C30.5566 41.5731 32.6955 43.7253 35.318 43.7253C37.9406 43.7253 40.0795 41.5731 40.0795 38.9342C40.0795 36.2952 37.9406 34.143 35.318 34.143Z" fill="white"/>
</svg>
