<svg width="61" height="54" viewBox="0 0 61 54" fill="none" xmlns="http://www.w3.org/2000/svg">
<path d="M17.3706 50.5005C17.2814 50.5005 17.2049 50.4878 17.1157 50.4624C16.7332 50.3606 16.4655 50.0426 16.4145 49.6483C15.9173 45.3234 16.746 41.431 18.9259 37.7548C20.8254 34.5493 23.5153 31.8908 26.116 29.3213C26.8809 28.5581 27.6713 27.7821 28.4234 26.9935C29.7875 25.5688 30.3357 24.3349 30.0552 23.3173C29.6983 22.0326 28.0537 21.1167 26.8936 20.6588C26.6897 21.1421 26.3965 21.74 25.9885 22.3506C24.7647 24.1696 23.1329 25.1363 21.2716 25.1236C21.2334 25.1236 21.2079 25.1236 21.1696 25.1236C18.4797 25.1236 17.3196 25.785 17.0519 27.4514C17.0137 28.1637 16.6185 28.8125 15.9556 29.2704C15.0122 29.9318 13.5971 30.1354 12.5263 29.7792L10.6395 29.1432C9.69615 28.8252 9.14797 27.833 9.39019 26.8663L12.9597 13.0775C13.5589 10.6988 15.1397 8.67628 17.3069 7.53146C17.4599 7.45514 17.6129 7.36609 17.7658 7.30249L15.9556 2.40519C15.6879 1.68014 15.9046 0.866038 16.5293 0.382668C17.1412 -0.100702 17.9953 -0.126143 18.6455 0.306346L24.8667 4.50403C25.7335 4.41499 28.0282 4.26235 31.1133 4.70756C34.6956 5.22909 40.1009 6.6792 45.4679 10.6606C48.6423 13.0139 52.0971 16.3593 53.7416 23.3428C53.8563 23.8516 53.5376 24.3731 53.0277 24.4876C52.5178 24.6021 51.9951 24.284 51.8803 23.7752C50.376 17.4151 47.3547 14.4513 44.3206 12.1998C39.2978 8.47276 34.2494 7.09897 30.8966 6.6156C27.2506 6.08135 24.7647 6.43751 24.7392 6.43751C24.497 6.47568 24.2547 6.41207 24.0635 6.28487L17.8678 2.0999L19.8948 7.4933C20.0733 7.97667 19.8438 8.51092 19.3721 8.70172C18.9897 8.86709 18.5945 9.04517 18.2248 9.24869C16.5292 10.1391 15.2927 11.7164 14.8337 13.5736L11.2642 27.3624L13.1509 27.9984C13.6481 28.1637 14.413 28.0492 14.872 27.7312C14.9995 27.6422 15.1524 27.5023 15.1524 27.3496C15.1524 27.3115 15.1524 27.2733 15.1652 27.2351C15.7644 23.2028 19.9203 23.2283 21.2971 23.241H21.3099C22.4955 23.241 23.5281 22.605 24.3822 21.3584C25.0961 20.3153 25.4021 19.2468 25.4021 19.2341C25.5423 18.7253 26.065 18.4327 26.5749 18.5727C26.6259 18.5854 27.684 18.8779 28.8441 19.5012C30.5142 20.4044 31.534 21.5238 31.9037 22.8339C32.3882 24.5512 31.6743 26.4083 29.813 28.3545C29.0481 29.1432 28.245 29.9446 27.4673 30.7078C24.9559 33.1882 22.3552 35.7577 20.5832 38.7597C18.9769 41.4564 18.212 44.1913 18.1993 47.206C20.2008 45.2725 22.6994 43.9369 25.5551 43.2881C28.3087 42.6648 30.4249 42.8938 30.5142 42.9065C31.0368 42.9701 31.4193 43.4408 31.3555 43.9623C31.2918 44.4838 30.8201 44.8654 30.2974 44.8018C30.2719 44.8018 28.3597 44.5983 25.9248 45.158C22.6994 45.9085 20.086 47.5876 18.161 50.1316C17.9571 50.3606 17.6638 50.5005 17.3706 50.5005Z" fill="#FF8F4E"/>
<path d="M26.3198 20.4176C26.2306 20.4176 26.1413 20.4049 26.0521 20.3795C25.5421 20.2268 25.2489 19.7053 25.4019 19.1965C25.7461 18.0134 25.8736 16.3089 25.8736 16.2962C25.9119 15.7746 26.3708 15.3803 26.8935 15.4184C27.4162 15.4566 27.8114 15.9145 27.7732 16.4361C27.7732 16.5124 27.633 18.3442 27.225 19.7307C27.123 20.1505 26.7405 20.4176 26.3198 20.4176Z" fill="#FF8F4E"/>
<path d="M46.4875 54.0001C45.7736 54.0001 45.0724 53.8092 44.435 53.4149L35.6004 47.9451C34.4531 47.2327 33.7646 45.9988 33.7646 44.6504V33.3418C33.7646 31.9934 34.4531 30.7595 35.6004 30.0472L44.435 24.5773C45.6971 23.8014 47.2651 23.8014 48.5272 24.5773L57.3618 30.0472C58.5091 30.7595 59.1975 31.9934 59.1975 33.3418V44.6504C59.1975 45.9988 58.5091 47.2327 57.3618 47.9451L48.5272 53.4149C47.9025 53.8092 47.2014 54.0001 46.4875 54.0001ZM46.4875 25.913C46.1305 25.913 45.7736 26.0148 45.4421 26.2056L36.6075 31.6754C36.0211 32.0316 35.6769 32.6676 35.6769 33.3545V44.6631C35.6769 45.3501 36.0211 45.9734 36.6075 46.3423L45.4421 51.8121C46.0795 52.2064 46.8827 52.2064 47.5201 51.8121L56.3547 46.3423C56.9411 45.9861 57.2853 45.3501 57.2853 44.6631V33.3545C57.2853 32.6676 56.9411 32.0443 56.3547 31.6754L47.5201 26.2056C47.2014 26.002 46.8444 25.913 46.4875 25.913Z" fill="#FF8F4E"/>
<path d="M46.4881 45.4253C42.9185 45.4253 40.0117 42.525 40.0117 38.9633C40.0117 35.4015 42.9185 32.5012 46.4881 32.5012C50.0578 32.5012 52.9645 35.4015 52.9645 38.9633C52.9645 42.525 50.0578 45.4253 46.4881 45.4253ZM46.4881 34.4093C43.9766 34.4093 41.924 36.4573 41.924 38.9633C41.924 41.4692 43.9766 43.5172 46.4881 43.5172C48.9997 43.5172 51.0522 41.4692 51.0522 38.9633C51.0522 36.4573 48.9997 34.4093 46.4881 34.4093Z" fill="white"/>
<path d="M13.4573 16.0545C13.2916 16.0545 13.1258 16.0164 12.9728 15.9273L0.478986 8.6893C0.0710232 8.46033 -0.10746 7.96422 0.0710232 7.519C0.249507 7.07378 0.695716 6.83209 1.15467 6.92114L15.2421 9.87231C15.7648 9.9868 16.0836 10.4829 15.9816 11.0044C15.8668 11.526 15.3696 11.8567 14.8469 11.7422L6.58568 10.0122L13.9418 14.2736C14.4007 14.5408 14.5537 15.1259 14.286 15.5839C14.1075 15.8891 13.7888 16.0545 13.4573 16.0545Z" fill="#FF8F4E"/>
<path d="M59.0572 28.3298C58.5601 28.3298 58.1394 27.9355 58.1011 27.4394C58.1011 27.414 57.8844 24.1702 56.2526 20.0615C54.7611 16.2962 51.7397 10.9789 45.8245 7.06101C40.4957 3.5374 35.1031 2.41799 31.5081 2.09997C27.5944 1.75652 24.9172 2.25262 24.8917 2.26534C24.3691 2.36711 23.8719 2.02365 23.7699 1.51483C23.6679 0.993283 24.0121 0.49718 24.522 0.395415C24.6368 0.369974 27.4414 -0.15157 31.6101 0.204606C35.4346 0.535342 41.1968 1.71836 46.8826 5.48365C53.2313 9.68145 56.4693 15.393 58.0501 19.4381C59.7711 23.8267 59.9879 27.1977 60.0006 27.3376C60.0261 27.8592 59.6309 28.3171 59.1082 28.3426C59.0955 28.3298 59.0827 28.3298 59.0572 28.3298Z" fill="#FF8F4E"/>
<path d="M18.0965 16.525C17.918 16.525 17.7396 16.4741 17.5866 16.3723C17.3571 16.2324 17.2041 15.9907 17.1531 15.7236C16.9746 14.6805 17.4846 12.9759 19.5626 12.5943C19.8431 12.5434 20.1236 12.6198 20.3403 12.7979C20.557 12.9759 20.6845 13.2431 20.6845 13.5229C20.6973 14.3243 20.2128 15.9653 18.3388 16.4996C18.275 16.5123 18.1858 16.525 18.0965 16.525Z" fill="white"/>
</svg>
