<svg width="61" height="54" viewBox="0 0 61 54" fill="none" xmlns="http://www.w3.org/2000/svg">
<path d="M30.5006 34.7593C29.7265 34.7593 28.9523 34.5482 28.2641 34.1137L18.9249 28.2667C17.6715 27.4846 16.9219 26.1191 16.9219 24.6294V12.5009C16.9219 11.0112 17.6715 9.64569 18.9249 8.86361L28.2641 3.0166C29.6404 2.14762 31.3608 2.14762 32.7371 3.0166L42.0764 8.86361C43.3298 9.64569 44.0794 11.0112 44.0794 12.5009V24.6294C44.0794 26.1191 43.3298 27.4846 42.0764 28.2667L32.7371 34.1137C32.049 34.5482 31.2748 34.7593 30.5006 34.7593ZM30.5006 4.22076C30.0583 4.22076 29.6282 4.3449 29.2349 4.58077L19.8957 10.4278C19.183 10.8747 18.7651 11.6443 18.7651 12.4885V24.617C18.7651 25.4611 19.1952 26.2308 19.8957 26.6777L29.2349 32.5247C30.0091 33.0089 30.9799 33.0089 31.7664 32.5247L41.1056 26.6777C41.8183 26.2308 42.2361 25.4611 42.2361 24.617V12.4885C42.2361 11.6443 41.8183 10.8747 41.1056 10.4278L31.7664 4.58077C31.3731 4.3449 30.943 4.22076 30.5006 4.22076Z" fill="#FF8F4E"/>
<path d="M30.4998 25.4611C26.7148 25.4611 23.6426 22.3576 23.6426 18.5341C23.6426 14.7106 26.7148 11.6071 30.4998 11.6071C34.2848 11.6071 37.3571 14.7106 37.3571 18.5341C37.3571 22.3576 34.2848 25.4611 30.4998 25.4611ZM30.4998 13.4567C27.7348 13.4567 25.4859 15.7285 25.4859 18.5217C25.4859 21.3148 27.7348 23.5866 30.4998 23.5866C33.2648 23.5866 35.5137 21.3148 35.5137 18.5217C35.5137 15.7285 33.2648 13.4567 30.4998 13.4567Z" fill="white"/>
<path d="M30.5002 41.325C29.2221 41.325 28.0055 41.1636 27.0838 40.8781C25.4617 40.3816 25.1299 39.5871 25.1299 39.016C25.1299 38.507 25.5477 38.085 26.0516 38.085C26.4817 38.085 26.8503 38.3953 26.9487 38.805C27.2067 38.9788 28.2759 39.4629 30.5002 39.4629C32.7245 39.4629 33.7936 38.9788 34.0517 38.805C34.15 38.3953 34.5187 38.085 34.9488 38.085C35.4526 38.085 35.8704 38.507 35.8704 39.016C35.8704 39.5871 35.5264 40.3816 33.9165 40.8781C32.9948 41.1636 31.7782 41.325 30.5002 41.325Z" fill="#FF8F4E"/>
<path d="M30.5 54.0001C22.4879 54.0001 14.9428 52.8084 9.25322 50.6235C3.29331 48.3517 0 45.1986 0 41.7599C0 39.4633 1.48691 37.266 4.28868 35.3915C6.83239 33.6908 10.4698 32.2508 14.7953 31.2204C15.2869 31.1087 15.7907 31.419 15.9013 31.9156C16.0119 32.4121 15.7047 32.9211 15.2131 33.0328C11.0965 34.0011 7.66801 35.3543 5.30862 36.9433C3.72341 37.9984 1.84327 39.6992 1.84327 41.7599C1.84327 44.3296 4.78022 46.9241 9.9168 48.8855C15.3975 50.9835 22.7091 52.138 30.5 52.138C38.2909 52.138 45.6025 50.9835 51.0832 48.8855C56.2075 46.9241 59.1567 44.3296 59.1567 41.7599C59.1567 39.6868 57.2766 37.9984 55.6914 36.9433C53.3197 35.3543 49.9035 34.0135 45.7869 33.0328C45.2953 32.9211 44.9881 32.4121 45.0987 31.9156C45.2093 31.419 45.7131 31.1087 46.2047 31.2204C50.5302 32.2383 54.1676 33.6784 56.7113 35.3915C59.5131 37.266 61 39.4757 61 41.7599C61 45.1986 57.7067 48.3393 51.7468 50.6235C46.0572 52.8084 38.5121 54.0001 30.5 54.0001Z" fill="#FF8F4E"/>
<path d="M30.501 49.1585C24.6025 49.1585 19.0482 48.364 14.8578 46.9116C9.09449 44.9129 7.87793 42.4425 7.87793 40.717C7.87793 37.4893 12.056 34.7955 19.3554 33.3182C19.8592 33.2189 20.3384 33.5417 20.4368 34.0506C20.5351 34.5596 20.2156 35.0438 19.7117 35.1431C13.7395 36.3597 9.7212 38.5942 9.7212 40.717C9.7212 43.8329 18.2494 47.3088 30.501 47.3088C42.7403 47.3088 51.2808 43.8329 51.2808 40.717C51.2808 38.5942 47.2625 36.3597 41.2903 35.1431C40.7865 35.0438 40.467 34.5472 40.5653 34.0506C40.6636 33.5417 41.1551 33.2189 41.6467 33.3182C48.9337 34.7955 53.1241 37.5017 53.1241 40.717C53.1241 42.4425 51.9075 44.9129 46.1442 46.9116C41.9539 48.3516 36.3995 49.1585 30.501 49.1585Z" fill="#FF8F4E"/>
<path d="M30.5006 45.2481C26.7772 45.2481 23.2627 44.7639 20.5961 43.8825C16.7743 42.6163 15.9756 40.9777 15.9756 39.8232C15.9756 37.7128 18.5439 36.0245 23.2135 35.0686C23.7173 34.9693 24.1966 35.292 24.2949 35.801C24.3932 36.31 24.0737 36.7941 23.5699 36.8934C19.3426 37.75 17.8189 39.1156 17.8189 39.8107C17.8189 41.0521 22.169 43.3736 30.5006 43.3736C38.8199 43.3736 43.1823 41.0521 43.1823 39.8107C43.1823 39.1031 41.6462 37.75 37.4313 36.8934C36.9274 36.7941 36.6079 36.2976 36.7062 35.801C36.8046 35.292 37.2961 34.9693 37.7876 35.0686C42.4573 36.0121 45.0255 37.7004 45.0255 39.8232C45.0255 40.9777 44.2268 42.6287 40.4051 43.8825C37.7385 44.7639 34.224 45.2481 30.5006 45.2481Z" fill="#FF8F4E"/>
<path d="M54.8797 20.781C54.3758 20.781 53.958 20.3589 53.958 19.8499V19.5396C53.958 19.0306 54.3758 18.6085 54.8797 18.6085C55.3835 18.6085 55.8014 19.0306 55.8014 19.5396V19.8499C55.8014 20.3589 55.3835 20.781 54.8797 20.781Z" fill="#FF8F4E"/>
<path d="M54.8797 25.8833C54.3758 25.8833 53.958 25.4612 53.958 24.9522V24.6419C53.958 24.1329 54.3758 23.7108 54.8797 23.7108C55.3835 23.7108 55.8014 24.1329 55.8014 24.6419V24.9522C55.8014 25.4736 55.3835 25.8833 54.8797 25.8833Z" fill="#FF8F4E"/>
<path d="M52.4965 23.1768H52.1893C51.6854 23.1768 51.2676 22.7547 51.2676 22.2457C51.2676 21.7368 51.6854 21.3147 52.1893 21.3147H52.4965C53.0003 21.3147 53.4181 21.7368 53.4181 22.2457C53.4181 22.7547 53.0126 23.1768 52.4965 23.1768Z" fill="#FF8F4E"/>
<path d="M57.559 23.1768H57.2518C56.7479 23.1768 56.3301 22.7547 56.3301 22.2457C56.3301 21.7368 56.7479 21.3147 57.2518 21.3147H57.559C58.0628 21.3147 58.4806 21.7368 58.4806 22.2457C58.4806 22.7547 58.0628 23.1768 57.559 23.1768Z" fill="#FF8F4E"/>
<path d="M9.29081 12.5257C8.78697 12.5257 8.36914 12.1036 8.36914 11.5947V11.2843C8.36914 10.7753 8.78697 10.3533 9.29081 10.3533C9.79466 10.3533 10.2125 10.7753 10.2125 11.2843V11.5947C10.2125 12.1161 9.79466 12.5257 9.29081 12.5257Z" fill="#FF8F4E"/>
<path d="M9.29081 17.6404C8.78697 17.6404 8.36914 17.2183 8.36914 16.7093V16.399C8.36914 15.89 8.78697 15.4679 9.29081 15.4679C9.79466 15.4679 10.2125 15.89 10.2125 16.399V16.7093C10.2125 17.2183 9.79466 17.6404 9.29081 17.6404Z" fill="#FF8F4E"/>
<path d="M6.91933 14.9341H6.6121C6.10826 14.9341 5.69043 14.512 5.69043 14.0031C5.69043 13.4941 6.10826 13.072 6.6121 13.072H6.91933C7.42318 13.072 7.841 13.4941 7.841 14.0031C7.841 14.512 7.42318 14.9341 6.91933 14.9341Z" fill="#FF8F4E"/>
<path d="M11.9701 14.9341H11.6629C11.159 14.9341 10.7412 14.512 10.7412 14.0031C10.7412 13.4941 11.159 13.072 11.6629 13.072H11.9701C12.474 13.072 12.8918 13.4941 12.8918 14.0031C12.8918 14.512 12.4862 14.9341 11.9701 14.9341Z" fill="#FF8F4E"/>
<path d="M46.7088 2.17245C46.2049 2.17245 45.7871 1.75038 45.7871 1.2414V0.931051C45.7871 0.422077 46.2049 0 46.7088 0C47.2126 0 47.6305 0.422077 47.6305 0.931051V1.2414C47.6305 1.75038 47.2249 2.17245 46.7088 2.17245Z" fill="#FF8F4E"/>
<path d="M46.7088 7.27463C46.2049 7.27463 45.7871 6.85255 45.7871 6.34357V6.03322C45.7871 5.52425 46.2049 5.10217 46.7088 5.10217C47.2126 5.10217 47.6305 5.52425 47.6305 6.03322V6.34357C47.6305 6.86496 47.2249 7.27463 46.7088 7.27463Z" fill="#FF8F4E"/>
<path d="M44.3373 4.56828H44.0301C43.5262 4.56828 43.1084 4.1462 43.1084 3.63723C43.1084 3.12825 43.5262 2.70618 44.0301 2.70618H44.3373C44.8411 2.70618 45.259 3.12825 45.259 3.63723C45.259 4.1462 44.8534 4.56828 44.3373 4.56828Z" fill="#FF8F4E"/>
<path d="M49.3998 4.56828H49.0926C48.5887 4.56828 48.1709 4.1462 48.1709 3.63723C48.1709 3.12825 48.5887 2.70618 49.0926 2.70618H49.3998C49.9036 2.70618 50.3215 3.12825 50.3215 3.63723C50.3215 4.1462 49.9036 4.56828 49.3998 4.56828Z" fill="#FF8F4E"/>
</svg>
