<svg width="54" height="54" viewBox="0 0 54 54" fill="none" xmlns="http://www.w3.org/2000/svg">
<g clip-path="url(#clip0)">
<path d="M13.1299 54.0014C8.91873 54.0014 4.77531 51.986 2.24635 48.2478C-1.80676 42.2689 -0.226159 34.1281 5.76882 30.0859C11.7638 26.055 19.9265 27.6313 23.9683 33.5989C28.0101 39.5778 26.4295 47.7186 20.4458 51.7495C18.1991 53.2696 15.6476 54.0014 13.1299 54.0014ZM13.0847 29.5454C10.8832 29.5454 8.67035 30.176 6.70589 31.4934C1.48992 35.0064 0.112541 42.1 3.63502 47.3019C5.33981 49.8241 7.9365 51.5243 10.9283 52.1098C13.9202 52.6841 16.9685 52.0648 19.4862 50.3646C24.7021 46.8516 26.0795 39.758 22.557 34.556C20.3668 31.302 16.754 29.5454 13.0847 29.5454Z" fill="#FF8F4E"/>
<path d="M19.4865 52.2337C19.2156 52.2337 18.9446 52.0986 18.7866 51.8621C18.5269 51.4793 18.6285 50.9501 19.0124 50.6911L22.151 48.5743C27.367 45.0613 28.7443 37.9677 25.2219 32.7657C23.5171 30.2436 20.9204 28.5433 17.9285 27.9578C14.9367 27.3836 11.8884 28.0029 9.37072 29.7031L6.2321 31.8199C5.84824 32.0789 5.31761 31.9775 5.05794 31.5947C4.79827 31.2119 4.89988 30.6827 5.28374 30.4237L8.42236 28.3069C11.3239 26.3477 14.8125 25.6383 18.2559 26.3027C21.6994 26.967 24.6686 28.9262 26.6331 31.8199C30.6749 37.7988 29.0943 45.9395 23.1106 49.9705L19.972 52.0873C19.814 52.1886 19.6446 52.2337 19.4865 52.2337Z" fill="#FF8F4E"/>
<path d="M36.331 41.7509H31.8828C31.4199 41.7509 31.036 41.368 31.036 40.9064C31.036 40.4448 31.4199 40.0619 31.8828 40.0619H35.4843V20.6052H15.9865V23.4652C15.9865 23.9268 15.6026 24.3096 15.1397 24.3096C14.6768 24.3096 14.293 23.9268 14.293 23.4652V19.7607C14.293 19.2991 14.6768 18.9163 15.1397 18.9163H36.3423C36.8052 18.9163 37.1891 19.2991 37.1891 19.7607V40.9064C37.1778 41.368 36.8052 41.7509 36.331 41.7509Z" fill="white"/>
<path d="M36.3311 41.7509C36.1166 41.7509 35.9021 41.6721 35.7328 41.5032C35.4054 41.1766 35.4054 40.6362 35.7328 40.3096L38.3182 37.7312V17.779H18.3236L15.7382 20.3575C15.4108 20.684 14.8689 20.684 14.5415 20.3575C14.214 20.031 14.214 19.4905 14.5415 19.164L17.3752 16.3378C17.5333 16.1802 17.7478 16.0901 17.9736 16.0901H39.1762C39.6391 16.0901 40.023 16.4729 40.023 16.9346V38.0802C40.023 38.3054 39.9326 38.5194 39.7746 38.677L36.9408 41.5032C36.7714 41.6721 36.5456 41.7509 36.3311 41.7509Z" fill="white"/>
<path d="M42.9923 29.0837C42.6988 29.0837 42.4165 28.9374 42.2585 28.6559C42.0214 28.2505 42.1681 27.7326 42.5633 27.5074L49.1454 23.7241V9.80717L38.5215 3.69317L27.8976 9.80717V13.3765C27.8976 13.8381 27.5137 14.221 27.0509 14.221C26.588 14.221 26.2041 13.8381 26.2041 13.3765V9.32301C26.2041 9.019 26.3622 8.7375 26.6331 8.59113L38.1037 1.99296C38.3634 1.84658 38.6908 1.84658 38.9505 1.99296L50.4211 8.59113C50.6808 8.7375 50.8501 9.019 50.8501 9.32301V24.2083C50.8501 24.5123 50.6921 24.7938 50.4211 24.9402L43.4213 28.9711C43.2859 29.0499 43.1391 29.0837 42.9923 29.0837Z" fill="#FF8F4E"/>
<path d="M49.992 25.0528C49.6984 25.0528 49.4162 24.9064 49.2581 24.6361C49.021 24.2308 49.1565 23.7129 49.5516 23.4764L52.2952 21.8437V7.93805L41.6822 1.82405L38.9499 3.44545C38.5435 3.6819 38.0241 3.54678 37.787 3.15269C37.5499 2.74735 37.6854 2.2294 38.0806 1.99295L41.2419 0.123842C41.5016 -0.0337936 41.829 -0.0337936 42.1 0.123842L53.571 6.72201C53.8307 6.86839 54.0001 7.14988 54.0001 7.45389V22.3504C54.0001 22.6432 53.842 22.9247 53.5823 23.0711L50.421 24.9402C50.2855 25.019 50.1387 25.0528 49.992 25.0528Z" fill="#FF8F4E"/>
<path d="M5.55381 13.6579C5.09091 13.6579 4.70703 13.2751 4.70703 12.8135V12.532C4.70703 12.0703 5.09091 11.6875 5.55381 11.6875C6.01672 11.6875 6.4006 12.0703 6.4006 12.532V12.8135C6.4006 13.2751 6.02801 13.6579 5.55381 13.6579Z" fill="#FF8F4E"/>
<path d="M5.55381 18.2856C5.09091 18.2856 4.70703 17.9028 4.70703 17.4412V17.1597C4.70703 16.698 5.09091 16.3152 5.55381 16.3152C6.01672 16.3152 6.4006 16.698 6.4006 17.1597V17.4412C6.4006 17.9141 6.02801 18.2856 5.55381 18.2856Z" fill="#FF8F4E"/>
<path d="M3.37514 15.831H3.09288C2.62997 15.831 2.24609 15.4482 2.24609 14.9866C2.24609 14.5249 2.62997 14.1421 3.09288 14.1421H3.37514C3.83804 14.1421 4.22192 14.5249 4.22192 14.9866C4.22192 15.4482 3.83804 15.831 3.37514 15.831Z" fill="#FF8F4E"/>
<path d="M8.01576 15.831H7.7335C7.27059 15.831 6.88672 15.4482 6.88672 14.9866C6.88672 14.5249 7.27059 14.1421 7.7335 14.1421H8.01576C8.47867 14.1421 8.86255 14.5249 8.86255 14.9866C8.86255 15.4482 8.48996 15.831 8.01576 15.831Z" fill="#FF8F4E"/>
<path d="M47.0108 47.0755C46.5479 47.0755 46.1641 46.6927 46.1641 46.2311V45.9496C46.1641 45.4879 46.5479 45.1051 47.0108 45.1051C47.4738 45.1051 47.8576 45.4879 47.8576 45.9496V46.2311C47.8576 46.704 47.485 47.0755 47.0108 47.0755Z" fill="#FF8F4E"/>
<path d="M47.0108 51.7146C46.5479 51.7146 46.1641 51.3317 46.1641 50.8701V50.5886C46.1641 50.127 46.5479 49.7441 47.0108 49.7441C47.4738 49.7441 47.8576 50.127 47.8576 50.5886V50.8701C47.8576 51.3317 47.485 51.7146 47.0108 51.7146Z" fill="#FF8F4E"/>
<path d="M44.8322 49.2599H44.5499C44.087 49.2599 43.7031 48.877 43.7031 48.4154C43.7031 47.9538 44.087 47.5709 44.5499 47.5709H44.8322C45.2951 47.5709 45.679 47.9538 45.679 48.4154C45.679 48.877 45.3064 49.2599 44.8322 49.2599Z" fill="#FF8F4E"/>
<path d="M49.4835 49.2599H49.2013C48.7384 49.2599 48.3545 48.877 48.3545 48.4154C48.3545 47.9538 48.7384 47.5709 49.2013 47.5709H49.4835C49.9464 47.5709 50.3303 47.9538 50.3303 48.4154C50.3303 48.877 49.9464 49.2599 49.4835 49.2599Z" fill="#FF8F4E"/>
<path d="M20.8302 1.97044C20.3673 1.97044 19.9834 1.58761 19.9834 1.12597V0.844475C19.9834 0.382829 20.3673 0 20.8302 0C21.2931 0 21.677 0.382829 21.677 0.844475V1.12597C21.677 1.58761 21.3044 1.97044 20.8302 1.97044Z" fill="#FF8F4E"/>
<path d="M20.8302 6.59813C20.3673 6.59813 19.9834 6.2153 19.9834 5.75365V5.47216C19.9834 5.01051 20.3673 4.62769 20.8302 4.62769C21.2931 4.62769 21.677 5.01051 21.677 5.47216V5.75365C21.677 6.22656 21.3044 6.59813 20.8302 6.59813Z" fill="#FF8F4E"/>
<path d="M18.6515 4.14354H18.3692C17.9063 4.14354 17.5225 3.76071 17.5225 3.29907C17.5225 2.83742 17.9063 2.45459 18.3692 2.45459H18.6515C19.1144 2.45459 19.4983 2.83742 19.4983 3.29907C19.4983 3.77197 19.1144 4.14354 18.6515 4.14354Z" fill="#FF8F4E"/>
<path d="M23.2912 4.14354H23.0089C22.546 4.14354 22.1621 3.76071 22.1621 3.29907C22.1621 2.83742 22.546 2.45459 23.0089 2.45459H23.2912C23.7541 2.45459 24.1379 2.83742 24.1379 3.29907C24.1379 3.77197 23.7654 4.14354 23.2912 4.14354Z" fill="#FF8F4E"/>
</g>
<defs>
<clipPath id="clip0">
<rect width="54" height="54" fill="white"/>
</clipPath>
</defs>
</svg>
